<svg width="1438" height="463" viewBox="0 0 1438 463" fill="none" xmlns="http://www.w3.org/2000/svg">
<g clip-path="url(#clip0_22_2)">
<g filter="url(#filter0_d_22_2)">
<rect x="19" y="22" width="1400" height="420" rx="15" fill="#085252"/>
</g>
<path d="M1287 129L1362 191.5M1287 191.5V279.5M1319 235V340.5M1319 378.5H1362M996 50H1267M247.5 357V389H319.5V306.5H398.5V441M1071.5 200.5L1025 279.5V441" stroke="#008080" stroke-width="4"/>
<path d="M188.5 21V75H134.5" stroke="#008080" stroke-width="4"/>
<path d="M93.9217 268.432C92.3217 268.432 90.8817 268.128 89.6017 267.52C88.3537 266.88 87.3617 266.016 86.6257 264.928C85.8897 263.84 85.5217 262.624 85.5217 261.28C85.5217 259.584 85.9537 258.24 86.8177 257.248C87.7137 256.256 89.1697 255.552 91.1857 255.136C93.2337 254.688 96.0177 254.464 99.5377 254.464H101.074V252.976C101.074 250.992 100.658 249.568 99.8257 248.704C99.0257 247.808 97.7297 247.36 95.9377 247.36C94.5297 247.36 93.1697 247.568 91.8577 247.984C90.5457 248.368 89.2017 249.008 87.8257 249.904L86.4817 247.072C87.6977 246.208 89.1697 245.52 90.8977 245.008C92.6577 244.496 94.3377 244.24 95.9377 244.24C98.9457 244.24 101.17 244.976 102.61 246.448C104.082 247.92 104.818 250.208 104.818 253.312V268H101.17V263.968C100.562 265.344 99.6177 266.432 98.3377 267.232C97.0897 268.032 95.6177 268.432 93.9217 268.432ZM94.5457 265.504C96.4657 265.504 98.0337 264.848 99.2497 263.536C100.466 262.192 101.074 260.496 101.074 258.448V257.008H99.5857C96.9937 257.008 94.9457 257.136 93.4417 257.392C91.9697 257.616 90.9297 258.032 90.3217 258.64C89.7457 259.216 89.4577 260.016 89.4577 261.04C89.4577 262.352 89.9057 263.424 90.8017 264.256C91.7297 265.088 92.9777 265.504 94.5457 265.504ZM124.887 268V234.16H145.815V237.472H128.823V249.28H144.855V252.592H128.823V268H124.887ZM158.396 268.432C152.796 268.432 149.996 265.344 149.996 259.168V244.672H153.884V259.12C153.884 261.2 154.3 262.736 155.132 263.728C155.996 264.72 157.34 265.216 159.164 265.216C161.148 265.216 162.764 264.56 164.012 263.248C165.26 261.904 165.884 260.128 165.884 257.92V244.672H169.772V268H165.98V264.064C165.244 265.472 164.204 266.56 162.86 267.328C161.548 268.064 160.06 268.432 158.396 268.432ZM184.198 268.432C181.83 268.432 180.038 267.744 178.822 266.368C177.638 264.96 177.046 262.928 177.046 260.272V234.16H180.934V259.984C180.934 263.408 182.294 265.12 185.014 265.12C185.814 265.12 186.534 265.024 187.174 264.832L187.078 268.096C186.086 268.32 185.126 268.432 184.198 268.432ZM198.402 268.432C196.034 268.432 194.242 267.744 193.026 266.368C191.842 264.96 191.25 262.928 191.25 260.272V234.16H195.138V259.984C195.138 263.408 196.498 265.12 199.218 265.12C200.018 265.12 200.738 265.024 201.378 264.832L201.282 268.096C200.29 268.32 199.33 268.432 198.402 268.432ZM204.886 256.816V253.6H218.326V256.816H204.886ZM233.387 268.432C231.563 268.432 229.835 268.176 228.203 267.664C226.571 267.152 225.227 266.432 224.171 265.504L225.419 262.768C226.571 263.696 227.835 264.384 229.211 264.832C230.619 265.248 232.043 265.456 233.483 265.456C235.307 265.456 236.683 265.12 237.611 264.448C238.539 263.776 239.003 262.864 239.003 261.712C239.003 260.816 238.699 260.112 238.091 259.6C237.483 259.056 236.523 258.64 235.211 258.352L230.843 257.392C226.875 256.528 224.891 254.48 224.891 251.248C224.891 249.136 225.723 247.44 227.387 246.16C229.083 244.88 231.291 244.24 234.011 244.24C235.611 244.24 237.131 244.496 238.571 245.008C240.043 245.488 241.259 246.208 242.219 247.168L240.923 249.904C239.995 249.04 238.907 248.384 237.659 247.936C236.443 247.456 235.227 247.216 234.011 247.216C232.219 247.216 230.859 247.568 229.931 248.272C229.003 248.976 228.539 249.904 228.539 251.056C228.539 252.848 229.723 254 232.091 254.512L236.459 255.424C238.507 255.872 240.059 256.592 241.115 257.584C242.171 258.544 242.699 259.856 242.699 261.52C242.699 263.664 241.851 265.36 240.155 266.608C238.459 267.824 236.203 268.432 233.387 268.432ZM257.75 268.432C254.998 268.432 252.934 267.712 251.558 266.272C250.182 264.8 249.494 262.688 249.494 259.936V247.696H244.934V244.672H249.494V237.52H253.382V244.672H260.774V247.696H253.382V259.552C253.382 261.376 253.766 262.768 254.534 263.728C255.302 264.656 256.55 265.12 258.278 265.12C258.79 265.12 259.302 265.056 259.814 264.928C260.326 264.8 260.79 264.672 261.206 264.544L261.878 267.52C261.462 267.744 260.854 267.952 260.054 268.144C259.254 268.336 258.486 268.432 257.75 268.432ZM272.515 268.432C270.915 268.432 269.475 268.128 268.195 267.52C266.947 266.88 265.955 266.016 265.219 264.928C264.483 263.84 264.115 262.624 264.115 261.28C264.115 259.584 264.547 258.24 265.411 257.248C266.307 256.256 267.763 255.552 269.779 255.136C271.827 254.688 274.611 254.464 278.131 254.464H279.667V252.976C279.667 250.992 279.251 249.568 278.419 248.704C277.619 247.808 276.323 247.36 274.531 247.36C273.123 247.36 271.763 247.568 270.451 247.984C269.139 248.368 267.795 249.008 266.419 249.904L265.075 247.072C266.291 246.208 267.763 245.52 269.491 245.008C271.251 244.496 272.931 244.24 274.531 244.24C277.539 244.24 279.763 244.976 281.203 246.448C282.675 247.92 283.411 250.208 283.411 253.312V268H279.763V263.968C279.155 265.344 278.211 266.432 276.931 267.232C275.683 268.032 274.211 268.432 272.515 268.432ZM273.139 265.504C275.059 265.504 276.627 264.848 277.843 263.536C279.059 262.192 279.667 260.496 279.667 258.448V257.008H278.179C275.587 257.008 273.539 257.136 272.035 257.392C270.563 257.616 269.523 258.032 268.915 258.64C268.339 259.216 268.051 260.016 268.051 261.04C268.051 262.352 268.499 263.424 269.395 264.256C270.323 265.088 271.571 265.504 273.139 265.504ZM300.513 268.432C298.177 268.432 296.161 267.936 294.465 266.944C292.769 265.92 291.457 264.496 290.529 262.672C289.633 260.816 289.185 258.656 289.185 256.192C289.185 252.48 290.193 249.568 292.209 247.456C294.225 245.312 296.993 244.24 300.513 244.24C301.953 244.24 303.377 244.496 304.785 245.008C306.193 245.52 307.361 246.24 308.289 247.168L306.945 250C306.017 249.104 304.993 248.448 303.873 248.032C302.785 247.616 301.745 247.408 300.753 247.408C298.321 247.408 296.449 248.176 295.137 249.712C293.825 251.216 293.169 253.392 293.169 256.24C293.169 259.024 293.825 261.232 295.137 262.864C296.449 264.464 298.321 265.264 300.753 265.264C301.745 265.264 302.785 265.056 303.873 264.64C304.993 264.224 306.017 263.552 306.945 262.624L308.289 265.456C307.361 266.384 306.177 267.12 304.737 267.664C303.329 268.176 301.921 268.432 300.513 268.432ZM312.843 268V234.16H316.731V255.04H316.827L327.627 244.672H332.571L320.859 255.904L333.579 268H328.635L316.827 257.056H316.731V268H312.843ZM358.051 268.432C355.971 268.432 354.147 267.936 352.579 266.944C351.043 265.952 349.843 264.56 348.979 262.768C348.147 260.944 347.731 258.8 347.731 256.336C347.731 253.84 348.147 251.696 348.979 249.904C349.843 248.08 351.043 246.688 352.579 245.728C354.147 244.736 355.971 244.24 358.051 244.24C359.875 244.24 361.475 244.64 362.851 245.44C364.259 246.24 365.299 247.344 365.971 248.752V234.16H369.859V268H366.067V263.728C365.395 265.2 364.355 266.352 362.947 267.184C361.539 268.016 359.907 268.432 358.051 268.432ZM358.867 265.312C361.043 265.312 362.787 264.544 364.099 263.008C365.411 261.44 366.067 259.216 366.067 256.336C366.067 253.424 365.411 251.2 364.099 249.664C362.787 248.128 361.043 247.36 358.867 247.36C356.659 247.36 354.899 248.128 353.587 249.664C352.307 251.2 351.667 253.424 351.667 256.336C351.667 259.216 352.307 261.44 353.587 263.008C354.899 264.544 356.659 265.312 358.867 265.312ZM387.668 268.432C383.988 268.432 381.076 267.36 378.932 265.216C376.788 263.04 375.716 260.096 375.716 256.384C375.716 253.984 376.196 251.872 377.156 250.048C378.116 248.192 379.428 246.768 381.092 245.776C382.788 244.752 384.74 244.24 386.948 244.24C390.116 244.24 392.596 245.264 394.388 247.312C396.18 249.328 397.076 252.112 397.076 255.664V257.152H379.508C379.636 259.808 380.404 261.84 381.812 263.248C383.22 264.624 385.172 265.312 387.668 265.312C389.076 265.312 390.42 265.104 391.7 264.688C392.98 264.24 394.196 263.52 395.348 262.528L396.692 265.264C395.636 266.256 394.292 267.04 392.66 267.616C391.028 268.16 389.364 268.432 387.668 268.432ZM387.044 247.12C384.836 247.12 383.092 247.808 381.812 249.184C380.532 250.56 379.78 252.368 379.556 254.608H393.716C393.62 252.24 392.996 250.4 391.844 249.088C390.724 247.776 389.124 247.12 387.044 247.12ZM409.285 268L399.253 244.672H403.477L411.205 263.584L419.029 244.672H423.013L412.933 268H409.285ZM437.308 268.432C433.628 268.432 430.716 267.36 428.572 265.216C426.428 263.04 425.356 260.096 425.356 256.384C425.356 253.984 425.836 251.872 426.796 250.048C427.756 248.192 429.068 246.768 430.732 245.776C432.428 244.752 434.38 244.24 436.588 244.24C439.756 244.24 442.236 245.264 444.028 247.312C445.82 249.328 446.716 252.112 446.716 255.664V257.152H429.148C429.276 259.808 430.044 261.84 431.452 263.248C432.86 264.624 434.812 265.312 437.308 265.312C438.716 265.312 440.06 265.104 441.34 264.688C442.62 264.24 443.836 263.52 444.988 262.528L446.332 265.264C445.276 266.256 443.932 267.04 442.3 267.616C440.668 268.16 439.004 268.432 437.308 268.432ZM436.684 247.12C434.476 247.12 432.732 247.808 431.452 249.184C430.172 250.56 429.42 252.368 429.196 254.608H443.356C443.26 252.24 442.636 250.4 441.484 249.088C440.364 247.776 438.764 247.12 436.684 247.12ZM459.495 268.432C457.127 268.432 455.335 267.744 454.119 266.368C452.935 264.96 452.343 262.928 452.343 260.272V234.16H456.231V259.984C456.231 263.408 457.591 265.12 460.311 265.12C461.111 265.12 461.831 265.024 462.471 264.832L462.375 268.096C461.383 268.32 460.423 268.432 459.495 268.432ZM476.008 268.432C473.736 268.432 471.768 267.936 470.104 266.944C468.44 265.952 467.144 264.56 466.216 262.768C465.32 260.944 464.872 258.8 464.872 256.336C464.872 253.872 465.32 251.744 466.216 249.952C467.144 248.128 468.44 246.72 470.104 245.728C471.768 244.736 473.736 244.24 476.008 244.24C478.248 244.24 480.2 244.736 481.864 245.728C483.56 246.72 484.856 248.128 485.752 249.952C486.68 251.744 487.144 253.872 487.144 256.336C487.144 258.8 486.68 260.944 485.752 262.768C484.856 264.56 483.56 265.952 481.864 266.944C480.2 267.936 478.248 268.432 476.008 268.432ZM476.008 265.312C478.184 265.312 479.928 264.544 481.24 263.008C482.552 261.44 483.208 259.216 483.208 256.336C483.208 253.424 482.552 251.2 481.24 249.664C479.928 248.128 478.184 247.36 476.008 247.36C473.8 247.36 472.04 248.128 470.728 249.664C469.448 251.2 468.808 253.424 468.808 256.336C468.808 259.216 469.448 261.44 470.728 263.008C472.04 264.544 473.8 265.312 476.008 265.312ZM492.984 276.64V244.672H496.776V248.848C497.48 247.408 498.52 246.288 499.896 245.488C501.304 244.656 502.936 244.24 504.792 244.24C506.872 244.24 508.68 244.736 510.216 245.728C511.784 246.688 512.984 248.08 513.816 249.904C514.68 251.696 515.112 253.84 515.112 256.336C515.112 258.8 514.68 260.944 513.816 262.768C512.984 264.56 511.784 265.952 510.216 266.944C508.68 267.936 506.872 268.432 504.792 268.432C503 268.432 501.4 268.032 499.992 267.232C498.584 266.432 497.544 265.328 496.872 263.92V276.64H492.984ZM503.976 265.312C506.152 265.312 507.896 264.544 509.208 263.008C510.52 261.44 511.176 259.216 511.176 256.336C511.176 253.424 510.52 251.2 509.208 249.664C507.896 248.128 506.152 247.36 503.976 247.36C501.8 247.36 500.056 248.128 498.744 249.664C497.432 251.2 496.776 253.424 496.776 256.336C496.776 259.216 497.432 261.44 498.744 263.008C500.056 264.544 501.8 265.312 503.976 265.312ZM531.48 268.432C527.8 268.432 524.888 267.36 522.744 265.216C520.6 263.04 519.528 260.096 519.528 256.384C519.528 253.984 520.008 251.872 520.968 250.048C521.928 248.192 523.24 246.768 524.904 245.776C526.6 244.752 528.552 244.24 530.76 244.24C533.928 244.24 536.408 245.264 538.2 247.312C539.992 249.328 540.888 252.112 540.888 255.664V257.152H523.32C523.448 259.808 524.216 261.84 525.624 263.248C527.032 264.624 528.984 265.312 531.48 265.312C532.888 265.312 534.232 265.104 535.512 264.688C536.792 264.24 538.008 263.52 539.16 262.528L540.504 265.264C539.448 266.256 538.104 267.04 536.472 267.616C534.84 268.16 533.176 268.432 531.48 268.432ZM530.856 247.12C528.648 247.12 526.904 247.808 525.624 249.184C524.344 250.56 523.592 252.368 523.368 254.608H537.528C537.432 252.24 536.808 250.4 535.656 249.088C534.536 247.776 532.936 247.12 530.856 247.12ZM546.515 268V244.672H550.307V248.848C551.555 246.032 554.115 244.48 557.987 244.192L559.379 244.048L559.667 247.408L557.219 247.696C555.011 247.888 553.331 248.592 552.179 249.808C551.027 250.992 550.451 252.624 550.451 254.704V268H546.515Z" fill="white"/>
<path d="M80.3125 157.625H88.4062V179.969H98V157.625H106.094V211H98V186.344H88.4062V211H80.3125V157.625ZM125.188 211.469C123.333 211.469 121.688 211.125 120.25 210.438C118.833 209.75 117.635 208.677 116.656 207.219C115.677 205.76 114.938 203.896 114.438 201.625C113.938 199.333 113.688 196.583 113.688 193.375V185.25C113.688 182.521 113.885 180.188 114.281 178.25C114.698 176.292 115.229 174.656 115.875 173.344C116.542 172.01 117.302 170.958 118.156 170.188C119.031 169.417 119.927 168.833 120.844 168.438C121.76 168.021 122.667 167.76 123.562 167.656C124.479 167.531 125.323 167.469 126.094 167.469C127.51 167.469 128.875 167.688 130.188 168.125C131.5 168.542 132.656 169.271 133.656 170.312C134.656 171.333 135.448 172.708 136.031 174.438C136.635 176.167 136.938 178.323 136.938 180.906C136.938 181.781 136.906 182.667 136.844 183.562C136.802 184.458 136.74 185.344 136.656 186.219C136.573 187.073 136.458 187.906 136.312 188.719C136.188 189.531 136.052 190.281 135.906 190.969H121.625V195.344C121.625 197.219 121.698 198.802 121.844 200.094C121.99 201.365 122.229 202.396 122.562 203.188C122.917 203.958 123.385 204.521 123.969 204.875C124.573 205.208 125.323 205.375 126.219 205.375C126.698 205.375 127.167 205.281 127.625 205.094C128.083 204.885 128.479 204.552 128.812 204.094C129.167 203.635 129.448 203.031 129.656 202.281C129.865 201.51 129.969 200.562 129.969 199.438V198.094H136.562V199.75C136.562 203.833 135.583 206.812 133.625 208.688C131.688 210.542 128.875 211.469 125.188 211.469ZM129.562 185.656C129.583 185.427 129.604 185.125 129.625 184.75C129.646 184.354 129.656 183.948 129.656 183.531C129.677 183.115 129.688 182.708 129.688 182.312C129.688 181.896 129.688 181.542 129.688 181.25C129.688 178.417 129.354 176.375 128.688 175.125C128.021 173.875 127.031 173.25 125.719 173.25C125.031 173.25 124.427 173.417 123.906 173.75C123.385 174.062 122.958 174.604 122.625 175.375C122.292 176.125 122.042 177.125 121.875 178.375C121.708 179.625 121.625 181.177 121.625 183.031V185.656H129.562ZM142 219.281C143.188 219.448 144.281 219.406 145.281 219.156C146.281 218.927 147.135 218.479 147.844 217.812C148.573 217.146 149.146 216.26 149.562 215.156C150 214.073 150.25 212.771 150.312 211.25L140.125 167.969H148.156L152.688 191.781L154 200H154.25L155.156 191.781L158.812 167.969H166.594L157.531 212.594C157.135 214.656 156.625 216.458 156 218C155.396 219.542 154.635 220.823 153.719 221.844C152.823 222.865 151.75 223.625 150.5 224.125C149.25 224.646 147.792 224.906 146.125 224.906C144.771 224.906 143.385 224.646 141.969 224.125L142 219.281ZM174.125 154.344H182.656L181.688 193.656H175.219L174.125 154.344ZM173.594 205.469C173.594 203.281 174.031 201.719 174.906 200.781C175.781 199.823 176.969 199.344 178.469 199.344C180.031 199.344 181.24 199.844 182.094 200.844C182.948 201.844 183.375 203.385 183.375 205.469C183.375 207.365 182.938 208.833 182.062 209.875C181.208 210.917 180 211.438 178.438 211.438C176.958 211.438 175.781 210.938 174.906 209.938C174.031 208.917 173.594 207.427 173.594 205.469ZM207.438 157.625H215.531V211H207.438V157.625ZM243.812 211.469C242.479 211.469 241.292 211.208 240.25 210.688C239.229 210.146 238.365 209.417 237.656 208.5C236.948 207.583 236.406 206.5 236.031 205.25C235.677 203.979 235.5 202.604 235.5 201.125C235.5 199.354 235.719 197.781 236.156 196.406C236.594 195.031 237.229 193.792 238.062 192.688C238.917 191.583 239.969 190.583 241.219 189.688C242.469 188.771 243.917 187.906 245.562 187.094C246.354 186.698 247.24 186.302 248.219 185.906C249.219 185.49 250.104 185.135 250.875 184.844V179.156C250.875 178.323 250.844 177.552 250.781 176.844C250.719 176.115 250.562 175.49 250.312 174.969C250.083 174.427 249.729 174.01 249.25 173.719C248.771 173.406 248.115 173.25 247.281 173.25C246.719 173.25 246.167 173.354 245.625 173.562C245.104 173.771 244.635 174.125 244.219 174.625C243.823 175.125 243.5 175.792 243.25 176.625C243.021 177.458 242.906 178.49 242.906 179.719V181.594H236.875C236.688 180.781 236.542 180.042 236.438 179.375C236.354 178.688 236.312 178.01 236.312 177.344C236.312 175.74 236.583 174.323 237.125 173.094C237.688 171.865 238.458 170.833 239.438 170C240.438 169.167 241.625 168.542 243 168.125C244.375 167.688 245.885 167.469 247.531 167.469C249.677 167.469 251.458 167.708 252.875 168.188C254.292 168.646 255.417 169.344 256.25 170.281C257.104 171.219 257.698 172.396 258.031 173.812C258.385 175.229 258.562 176.885 258.562 178.781V211H252.688L252.125 207.312C251.271 208.542 250.125 209.542 248.688 210.312C247.271 211.083 245.646 211.469 243.812 211.469ZM247.312 205.375C247.979 205.375 248.625 205.208 249.25 204.875C249.896 204.521 250.438 204.094 250.875 203.594V190.125C250.458 190.292 249.99 190.49 249.469 190.719C248.948 190.948 248.385 191.25 247.781 191.625C247.219 191.979 246.667 192.406 246.125 192.906C245.583 193.406 245.094 194 244.656 194.688C244.24 195.375 243.896 196.156 243.625 197.031C243.375 197.885 243.25 198.844 243.25 199.906C243.25 201.552 243.573 202.875 244.219 203.875C244.865 204.875 245.896 205.375 247.312 205.375ZM266.75 167.969H272.875L273.562 172.562V172.594C274.188 171.615 274.854 170.802 275.562 170.156C276.271 169.49 277 168.958 277.75 168.562C278.521 168.167 279.302 167.885 280.094 167.719C280.906 167.552 281.708 167.469 282.5 167.469C284.188 167.469 285.615 167.875 286.781 168.688C287.948 169.5 288.833 170.719 289.438 172.344C290.062 171.406 290.719 170.625 291.406 170C292.115 169.375 292.844 168.875 293.594 168.5C294.344 168.125 295.104 167.865 295.875 167.719C296.646 167.552 297.427 167.469 298.219 167.469C300.719 167.469 302.646 168.354 304 170.125C305.375 171.875 306.062 174.51 306.062 178.031V211H298.156V178.312C298.156 177.375 298.083 176.583 297.938 175.938C297.792 175.292 297.573 174.771 297.281 174.375C296.99 173.979 296.615 173.698 296.156 173.531C295.698 173.344 295.146 173.25 294.5 173.25C293.771 173.25 293.042 173.521 292.312 174.062C291.583 174.583 290.917 175.312 290.312 176.25C290.333 176.438 290.344 176.625 290.344 176.812C290.344 177 290.344 177.188 290.344 177.375V211H282.438V178.312C282.438 177.375 282.365 176.583 282.219 175.938C282.073 175.292 281.854 174.771 281.562 174.375C281.271 173.979 280.896 173.698 280.438 173.531C279.979 173.344 279.427 173.25 278.781 173.25C278.073 173.25 277.354 173.51 276.625 174.031C275.896 174.552 275.24 175.271 274.656 176.188V211H266.75V167.969ZM334.312 157.625H343.625L353.5 211H345.312L343.844 201.438H334.094L332.688 211H324.469L334.312 157.625ZM342.906 195.344L339.156 168.75H338.812L335.031 195.344H342.906ZM358.188 167.969H364.281L365 172.562V172.594C365.625 171.615 366.292 170.802 367 170.156C367.729 169.49 368.479 168.958 369.25 168.562C370.021 168.167 370.802 167.885 371.594 167.719C372.406 167.552 373.208 167.469 374 167.469C376.521 167.469 378.458 168.354 379.812 170.125C381.188 171.875 381.875 174.51 381.875 178.031V211H373.969V178.312C373.969 176.417 373.677 175.104 373.094 174.375C372.51 173.625 371.656 173.25 370.531 173.25C369.74 173.25 368.948 173.51 368.156 174.031C367.385 174.552 366.698 175.271 366.094 176.188V211H358.188V167.969ZM394.281 161.812C392.823 161.812 391.667 161.375 390.812 160.5C389.979 159.625 389.562 158.344 389.562 156.656C389.562 155.719 389.667 154.938 389.875 154.312C390.104 153.667 390.417 153.156 390.812 152.781C391.229 152.385 391.729 152.104 392.312 151.938C392.896 151.75 393.562 151.656 394.312 151.656C395.875 151.656 397.062 152.052 397.875 152.844C398.688 153.635 399.094 154.906 399.094 156.656C399.094 158.281 398.677 159.552 397.844 160.469C397.031 161.365 395.844 161.812 394.281 161.812ZM390.188 167.969H398.094V211H390.188V167.969ZM406.375 167.969H412.156L412.844 172.344C413.719 170.719 414.719 169.5 415.844 168.688C416.99 167.875 418.156 167.469 419.344 167.469C421.615 167.469 423.292 168.167 424.375 169.562C425.458 170.958 426 173.052 426 175.844C426 176.198 425.969 176.625 425.906 177.125C425.865 177.604 425.792 178.115 425.688 178.656C425.604 179.177 425.49 179.708 425.344 180.25C425.219 180.771 425.083 181.25 424.938 181.688H419.438V177.688C419.438 176.812 419.375 176.094 419.25 175.531C419.146 174.969 419 174.521 418.812 174.188C418.625 173.833 418.406 173.594 418.156 173.469C417.906 173.323 417.635 173.25 417.344 173.25C416.719 173.25 416.135 173.458 415.594 173.875C415.073 174.271 414.635 174.833 414.281 175.562V211H406.375V167.969ZM431 154.156H438.906V165.625L438.656 171.312L438.688 171.344C439.042 170.844 439.448 170.365 439.906 169.906C440.385 169.448 440.917 169.042 441.5 168.688C442.104 168.312 442.76 168.021 443.469 167.812C444.198 167.604 444.99 167.5 445.844 167.5C446.281 167.5 446.802 167.542 447.406 167.625C448.031 167.708 448.667 167.917 449.312 168.25C449.979 168.583 450.635 169.083 451.281 169.75C451.948 170.396 452.531 171.292 453.031 172.438C453.552 173.583 453.969 175.01 454.281 176.719C454.615 178.427 454.781 180.5 454.781 182.938V195.969C454.781 198.406 454.615 200.479 454.281 202.188C453.969 203.896 453.552 205.333 453.031 206.5C452.51 207.646 451.917 208.552 451.25 209.219C450.583 209.885 449.906 210.385 449.219 210.719C448.531 211.052 447.865 211.26 447.219 211.344C446.573 211.448 446.01 211.5 445.531 211.5C444.531 211.5 443.625 211.375 442.812 211.125C442.021 210.875 441.312 210.542 440.688 210.125C440.083 209.688 439.542 209.198 439.062 208.656C438.604 208.115 438.198 207.562 437.844 207L437.188 211H431V154.156ZM438.906 202.281C439.073 202.677 439.271 203.062 439.5 203.438C439.75 203.812 440.031 204.146 440.344 204.438C440.656 204.708 441.021 204.938 441.438 205.125C441.854 205.292 442.323 205.375 442.844 205.375C443.427 205.375 443.958 205.271 444.438 205.062C444.917 204.833 445.333 204.438 445.688 203.875C446.042 203.292 446.312 202.49 446.5 201.469C446.708 200.448 446.812 199.135 446.812 197.531V181.062C446.812 179.458 446.708 178.156 446.5 177.156C446.312 176.135 446.042 175.333 445.688 174.75C445.354 174.167 444.948 173.771 444.469 173.562C443.99 173.354 443.458 173.25 442.875 173.25C441.896 173.25 441.083 173.542 440.438 174.125C439.812 174.688 439.302 175.365 438.906 176.156V202.281ZM467.875 211.469C466.542 211.469 465.354 211.208 464.312 210.688C463.292 210.146 462.427 209.417 461.719 208.5C461.01 207.583 460.469 206.5 460.094 205.25C459.74 203.979 459.562 202.604 459.562 201.125C459.562 199.354 459.781 197.781 460.219 196.406C460.656 195.031 461.292 193.792 462.125 192.688C462.979 191.583 464.031 190.583 465.281 189.688C466.531 188.771 467.979 187.906 469.625 187.094C470.417 186.698 471.302 186.302 472.281 185.906C473.281 185.49 474.167 185.135 474.938 184.844V179.156C474.938 178.323 474.906 177.552 474.844 176.844C474.781 176.115 474.625 175.49 474.375 174.969C474.146 174.427 473.792 174.01 473.312 173.719C472.833 173.406 472.177 173.25 471.344 173.25C470.781 173.25 470.229 173.354 469.688 173.562C469.167 173.771 468.698 174.125 468.281 174.625C467.885 175.125 467.562 175.792 467.312 176.625C467.083 177.458 466.969 178.49 466.969 179.719V181.594H460.938C460.75 180.781 460.604 180.042 460.5 179.375C460.417 178.688 460.375 178.01 460.375 177.344C460.375 175.74 460.646 174.323 461.188 173.094C461.75 171.865 462.521 170.833 463.5 170C464.5 169.167 465.688 168.542 467.062 168.125C468.438 167.688 469.948 167.469 471.594 167.469C473.74 167.469 475.521 167.708 476.938 168.188C478.354 168.646 479.479 169.344 480.312 170.281C481.167 171.219 481.76 172.396 482.094 173.812C482.448 175.229 482.625 176.885 482.625 178.781V211H476.75L476.188 207.312C475.333 208.542 474.188 209.542 472.75 210.312C471.333 211.083 469.708 211.469 467.875 211.469ZM471.375 205.375C472.042 205.375 472.688 205.208 473.312 204.875C473.958 204.521 474.5 204.094 474.938 203.594V190.125C474.521 190.292 474.052 190.49 473.531 190.719C473.01 190.948 472.448 191.25 471.844 191.625C471.281 191.979 470.729 192.406 470.188 192.906C469.646 193.406 469.156 194 468.719 194.688C468.302 195.375 467.958 196.156 467.688 197.031C467.438 197.885 467.312 198.844 467.312 199.906C467.312 201.552 467.635 202.875 468.281 203.875C468.927 204.875 469.958 205.375 471.375 205.375ZM490.812 167.969H496.906L497.625 172.562V172.594C498.25 171.615 498.917 170.802 499.625 170.156C500.354 169.49 501.104 168.958 501.875 168.562C502.646 168.167 503.427 167.885 504.219 167.719C505.031 167.552 505.833 167.469 506.625 167.469C509.146 167.469 511.083 168.354 512.438 170.125C513.812 171.875 514.5 174.51 514.5 178.031V211H506.594V178.312C506.594 176.417 506.302 175.104 505.719 174.375C505.135 173.625 504.281 173.25 503.156 173.25C502.365 173.25 501.573 173.51 500.781 174.031C500.01 174.552 499.323 175.271 498.719 176.188V211H490.812V167.969ZM536.875 157.625H544.969V180.938H545.219L554.469 157.625H562.531L552.219 182.656L563.688 211H555.031L545.219 185.594H544.969V211H536.875V157.625ZM573.75 211.469C572.417 211.469 571.229 211.208 570.188 210.688C569.167 210.146 568.302 209.417 567.594 208.5C566.885 207.583 566.344 206.5 565.969 205.25C565.615 203.979 565.438 202.604 565.438 201.125C565.438 199.354 565.656 197.781 566.094 196.406C566.531 195.031 567.167 193.792 568 192.688C568.854 191.583 569.906 190.583 571.156 189.688C572.406 188.771 573.854 187.906 575.5 187.094C576.292 186.698 577.177 186.302 578.156 185.906C579.156 185.49 580.042 185.135 580.812 184.844V179.156C580.812 178.323 580.781 177.552 580.719 176.844C580.656 176.115 580.5 175.49 580.25 174.969C580.021 174.427 579.667 174.01 579.188 173.719C578.708 173.406 578.052 173.25 577.219 173.25C576.656 173.25 576.104 173.354 575.562 173.562C575.042 173.771 574.573 174.125 574.156 174.625C573.76 175.125 573.438 175.792 573.188 176.625C572.958 177.458 572.844 178.49 572.844 179.719V181.594H566.812C566.625 180.781 566.479 180.042 566.375 179.375C566.292 178.688 566.25 178.01 566.25 177.344C566.25 175.74 566.521 174.323 567.062 173.094C567.625 171.865 568.396 170.833 569.375 170C570.375 169.167 571.562 168.542 572.938 168.125C574.312 167.688 575.823 167.469 577.469 167.469C579.615 167.469 581.396 167.708 582.812 168.188C584.229 168.646 585.354 169.344 586.188 170.281C587.042 171.219 587.635 172.396 587.969 173.812C588.323 175.229 588.5 176.885 588.5 178.781V211H582.625L582.062 207.312C581.208 208.542 580.062 209.542 578.625 210.312C577.208 211.083 575.583 211.469 573.75 211.469ZM577.25 205.375C577.917 205.375 578.562 205.208 579.188 204.875C579.833 204.521 580.375 204.094 580.812 203.594V190.125C580.396 190.292 579.927 190.49 579.406 190.719C578.885 190.948 578.323 191.25 577.719 191.625C577.156 191.979 576.604 192.406 576.062 192.906C575.521 193.406 575.031 194 574.594 194.688C574.177 195.375 573.833 196.156 573.562 197.031C573.312 197.885 573.188 198.844 573.188 199.906C573.188 201.552 573.51 202.875 574.156 203.875C574.802 204.875 575.833 205.375 577.25 205.375ZM596.688 167.969H602.469L603.156 172.344C604.031 170.719 605.031 169.5 606.156 168.688C607.302 167.875 608.469 167.469 609.656 167.469C611.927 167.469 613.604 168.167 614.688 169.562C615.771 170.958 616.312 173.052 616.312 175.844C616.312 176.198 616.281 176.625 616.219 177.125C616.177 177.604 616.104 178.115 616 178.656C615.917 179.177 615.802 179.708 615.656 180.25C615.531 180.771 615.396 181.25 615.25 181.688H609.75V177.688C609.75 176.812 609.688 176.094 609.562 175.531C609.458 174.969 609.312 174.521 609.125 174.188C608.938 173.833 608.719 173.594 608.469 173.469C608.219 173.323 607.948 173.25 607.656 173.25C607.031 173.25 606.448 173.458 605.906 173.875C605.385 174.271 604.948 174.833 604.594 175.562V211H596.688V167.969Z" fill="white"/>
<path d="M1209.58 282.464C1202.25 282.244 1180.49 275.374 1176.16 272.204Z" fill="#E8BEAC"/>
<path d="M1212.6 316.324C1226.13 335.074 1269.88 340.64 1277.34 343.32C1289.58 347.91 1291.67 360.32 1291.85 367.08C1292.37 386.34 1294.65 419.38 1287.82 436.84" fill="#E8BEAC"/>
<path d="M1212.6 316.324C1204.39 301.684 1209.58 282.464 1209.58 282.464C1209.58 282.464 1225.49 283.214 1231.86 279.984C1244.13 274.754 1258.69 255.624 1258.54 228.234C1258.19 203.568 1252.95 179.213 1243.12 156.564C1234.25 133.754 1179.19 112.434 1137.72 152.274C1137.72 152.274 1115.36 172.594 1128.34 206.364" fill="#E8BEAC"/>
<path d="M1063.9 436.84C1058 418.03 1060.32 368.57 1061.17 361.59C1062.03 354.61 1065.33 340.45 1082.8 336.14C1090.53 334.21 1138.9 326.434 1148.72 312.944" fill="#E8BEAC"/>
<path d="M1151.1 261.944C1151.1 261.944 1134.85 252.774 1128.37 233.654C1121.89 214.534 1128.34 206.364 1128.34 206.364C1133.54 198.654 1154.24 196.764 1154.24 220.024" fill="#E8BEAC"/>
<path d="M1151.1 261.944C1152.33 286.244 1152.65 297.394 1148.72 312.944Z" fill="#E8BEAC"/>
<path d="M1212.6 316.324C1226.13 335.074 1269.88 340.64 1277.34 343.32C1289.58 347.91 1291.67 360.32 1291.85 367.08C1292.37 386.34 1294.65 419.38 1287.82 436.84H1063.9C1058 418.03 1060.32 368.57 1061.17 361.59C1062.03 354.61 1065.33 340.45 1082.8 336.14C1090.53 334.21 1138.9 326.434 1148.72 312.944C1152.65 297.394 1152.33 286.244 1151.1 261.944C1151.1 261.944 1134.85 252.774 1128.37 233.654C1121.89 214.534 1128.34 206.364 1128.34 206.364C1115.36 172.594 1137.72 152.274 1137.72 152.274C1179.19 112.434 1234.25 133.754 1243.12 156.564C1252.95 179.213 1258.19 203.568 1258.54 228.234C1258.69 255.624 1244.13 274.754 1231.86 279.984C1225.49 283.214 1209.58 282.464 1209.58 282.464C1209.58 282.464 1204.39 301.684 1212.6 316.324Z" fill="#E8BEAC"/>
<path d="M1209.58 282.464C1202.25 282.244 1180.49 275.374 1176.16 272.204M1209.58 282.464C1209.58 282.464 1204.39 301.684 1212.6 316.324C1226.13 335.074 1269.88 340.64 1277.34 343.32C1289.58 347.91 1291.67 360.32 1291.85 367.08C1292.37 386.34 1294.65 419.38 1287.82 436.84H1063.9C1058 418.03 1060.32 368.57 1061.17 361.59C1062.03 354.61 1065.33 340.45 1082.8 336.14C1090.53 334.21 1138.9 326.434 1148.72 312.944C1152.65 297.394 1152.33 286.244 1151.1 261.944C1151.1 261.944 1134.85 252.774 1128.37 233.654C1121.89 214.534 1128.34 206.364 1128.34 206.364M1209.58 282.464C1209.58 282.464 1225.49 283.214 1231.86 279.984C1244.13 274.754 1258.69 255.624 1258.54 228.234C1258.19 203.568 1252.95 179.213 1243.12 156.564C1234.25 133.754 1179.19 112.434 1137.72 152.274C1137.72 152.274 1115.36 172.594 1128.34 206.364M1128.34 206.364C1133.54 198.654 1154.24 196.764 1154.24 220.024" stroke="#050504" stroke-width="3" stroke-linecap="round" stroke-linejoin="round"/>
<path opacity="0.4" d="M1209.35 281.694C1208.38 288.5 1206.87 298.5 1209.35 306.5C1200.15 304.33 1174.16 286.474 1174.16 271.974C1185.53 276.388 1197.32 279.645 1209.35 281.694Z" fill="black"/>
<path d="M1140.2 212C1136.28 213.06 1133.6 218.95 1136.72 225.3" stroke="black" stroke-width="4" stroke-miterlimit="10" stroke-linecap="round"/>
<path d="M1058.16 361.59C1057.3 368.57 1054.98 418.03 1060.88 436.84H1284.81C1291.64 419.38 1289.35 386.34 1288.83 367.08C1288.65 360.32 1286.57 347.91 1274.32 343.32C1267.49 340.866 1232.52 336.5 1214.41 322L1177.7 325L1140.98 318C1124.71 328.054 1086.44 334.476 1079.78 336.14C1062.31 340.45 1059.01 354.61 1058.16 361.59Z" fill="#050504" stroke="#050504" stroke-width="3" stroke-linecap="round" stroke-linejoin="round"/>
<path d="M1168.53 345.23L1140.48 327.64C1143.65 321.118 1145.83 314.161 1146.94 307L1180.65 326.13L1207.89 309.93C1209.41 317.61 1211.7 324.07 1214.87 329.12L1191.53 342.74L1180.65 326.13L1168.53 345.23Z" fill="#9A36E8" stroke="#050504" stroke-width="3" stroke-linecap="round" stroke-linejoin="round"/>
<path d="M1178.75 326L1189.63 342.61C1196.89 372.34 1206.73 411.84 1208.83 445.61L1190.72 462.84L1173.46 448C1172.71 416.63 1172.74 376.85 1166.63 345.13L1178.75 326Z" fill="#9A36E8" stroke="#050504" stroke-width="3" stroke-linecap="round" stroke-linejoin="round"/>
<path opacity="0.2" d="M1177.75 326L1187.31 340.6L1167.15 349.65L1165.62 345.12L1177.75 326Z" fill="#050504"/>
<path d="M1209.52 212.68C1209.52 213.508 1210.2 214.18 1211.02 214.18C1211.85 214.18 1212.52 213.508 1212.52 212.68H1209.52ZM1225.09 211.03C1225.09 211.858 1225.76 212.53 1226.59 212.53C1227.42 212.53 1228.09 211.858 1228.09 211.03H1225.09ZM1180.01 213.302C1180.8 213.549 1181.64 213.108 1181.89 212.317C1182.13 211.526 1181.69 210.685 1180.9 210.438L1180.01 213.302ZM1126.29 204.04L1126.93 205.397C1126.95 205.39 1126.96 205.382 1126.98 205.374L1126.29 204.04ZM1116.77 219.987C1116.93 220.801 1117.71 221.337 1118.52 221.184C1119.34 221.031 1119.87 220.247 1119.72 219.433L1116.77 219.987ZM1209.53 211.87C1209.53 220.898 1203.17 227.86 1195.74 227.86V230.86C1205.2 230.86 1212.53 222.161 1212.53 211.87H1209.53ZM1195.74 227.86C1188.32 227.86 1181.96 220.898 1181.96 211.87H1178.96C1178.96 222.161 1186.29 230.86 1195.74 230.86V227.86ZM1181.96 211.87C1181.96 202.842 1188.32 195.88 1195.74 195.88V192.88C1186.29 192.88 1178.96 201.579 1178.96 211.87H1181.96ZM1195.74 195.88C1203.17 195.88 1209.53 202.842 1209.53 211.87H1212.53C1212.53 201.579 1205.2 192.88 1195.74 192.88V195.88ZM1255.51 208.49C1255.51 217.518 1249.15 224.48 1241.73 224.48V227.48C1251.18 227.48 1258.51 218.781 1258.51 208.49H1255.51ZM1241.73 224.48C1234.3 224.48 1227.95 217.518 1227.95 208.49H1224.95C1224.95 218.781 1232.28 227.48 1241.73 227.48V224.48ZM1227.95 208.49C1227.95 199.462 1234.3 192.5 1241.73 192.5V189.5C1232.28 189.5 1224.95 198.199 1224.95 208.49H1227.95ZM1241.73 192.5C1249.15 192.5 1255.51 199.462 1255.51 208.49H1258.51C1258.51 198.199 1251.18 189.5 1241.73 189.5V192.5ZM1212.52 212.68C1212.52 211.584 1213.1 210.682 1214.26 209.955C1215.44 209.209 1217.12 208.745 1218.9 208.639C1220.67 208.532 1222.36 208.794 1223.54 209.323C1224.74 209.858 1225.09 210.482 1225.09 211.03H1228.09C1228.09 208.793 1226.49 207.355 1224.77 206.585C1223.03 205.807 1220.83 205.517 1218.72 205.644C1216.6 205.771 1214.39 206.327 1212.66 207.416C1210.89 208.526 1209.52 210.276 1209.52 212.68H1212.52ZM1180.45 211.87C1180.9 210.438 1180.9 210.438 1180.9 210.438C1180.9 210.438 1180.9 210.438 1180.9 210.437C1180.9 210.437 1180.9 210.436 1180.89 210.435C1180.89 210.434 1180.88 210.431 1180.87 210.428C1180.85 210.421 1180.81 210.411 1180.77 210.398C1180.69 210.372 1180.57 210.334 1180.4 210.285C1180.08 210.187 1179.61 210.044 1179 209.864C1177.8 209.504 1176.06 208.997 1173.94 208.407C1169.7 207.227 1163.93 205.711 1157.81 204.371C1151.7 203.033 1145.2 201.862 1139.51 201.385C1136.67 201.147 1134 201.078 1131.66 201.259C1129.34 201.437 1127.24 201.868 1125.61 202.706L1126.98 205.374C1128.1 204.8 1129.74 204.415 1131.89 204.25C1134.01 204.086 1136.51 204.144 1139.26 204.375C1144.76 204.836 1151.11 205.976 1157.17 207.302C1163.22 208.626 1168.93 210.126 1173.13 211.297C1175.23 211.882 1176.95 212.384 1178.15 212.74C1178.75 212.917 1179.21 213.058 1179.53 213.155C1179.69 213.203 1179.81 213.24 1179.89 213.265C1179.93 213.277 1179.96 213.287 1179.98 213.293C1179.99 213.296 1180 213.298 1180 213.3C1180 213.301 1180 213.301 1180.01 213.301C1180.01 213.302 1180.01 213.302 1180.01 213.302C1180.01 213.302 1180.01 213.302 1180.45 211.87ZM1125.66 202.683C1122.46 204.185 1119.86 206.696 1118.25 209.827L1120.92 211.198C1122.22 208.659 1124.34 206.618 1126.93 205.397L1125.66 202.683ZM1118.25 209.827C1116.64 212.958 1116.12 216.53 1116.77 219.987L1119.72 219.433C1119.19 216.632 1119.62 213.736 1120.92 211.198L1118.25 209.827Z" fill="#050504"/>
<path d="M1249.9 168.737C1239.57 174.557 1199.99 178.487 1188.04 177.147C1182.44 176.517 1171.63 175.487 1165.09 174.767C1164.89 174.775 1164.7 174.842 1164.53 174.961C1164.37 175.08 1164.25 175.244 1164.18 175.432C1164.12 175.62 1164.11 175.824 1164.16 176.017C1164.21 176.211 1164.32 176.385 1164.47 176.517C1192.4 194.847 1156.48 237.197 1154.61 213.707C1150.97 194.387 1133.98 201.387 1131.96 202.597C1129.54 204.104 1127.51 206.16 1126.04 208.597C1124.22 211.487 1123.26 226.937 1132.6 242.757C1132.71 242.957 1132.74 243.188 1132.7 243.412C1132.66 243.636 1132.54 243.838 1132.37 243.987L1129.01 246.607C1128.9 246.684 1128.78 246.739 1128.65 246.769C1128.52 246.8 1128.39 246.804 1128.25 246.783C1128.12 246.762 1128 246.715 1127.89 246.645C1127.77 246.575 1127.68 246.484 1127.6 246.377C1082.6 178.127 1114.9 164.247 1119.73 162.627C1119.9 162.561 1120.05 162.451 1120.16 162.309C1120.27 162.166 1120.34 161.996 1120.37 161.817C1122.27 142.707 1134.31 120.677 1161.43 116.467C1176 114.057 1190.66 116.637 1199.4 120.067H1199.47C1210.13 123.487 1218.23 117.457 1227.75 108.367C1227.88 108.242 1228.04 108.145 1228.21 108.083C1228.38 108.02 1228.56 107.992 1228.74 108.002C1228.92 108.011 1229.1 108.057 1229.26 108.137C1229.42 108.217 1229.57 108.329 1229.68 108.467C1233.8 113.337 1233.59 116.797 1232.15 119.787C1232.09 119.957 1232.07 120.141 1232.11 120.318C1232.14 120.496 1232.22 120.66 1232.35 120.795C1232.47 120.929 1232.62 121.028 1232.8 121.082C1232.97 121.135 1233.16 121.14 1233.33 121.097C1241.98 117.957 1260.91 121.687 1268.13 116.637C1268.27 116.553 1268.42 116.504 1268.58 116.493C1268.74 116.481 1268.91 116.509 1269.05 116.573C1269.2 116.636 1269.33 116.734 1269.43 116.859C1269.54 116.983 1269.61 117.13 1269.64 117.287C1272.67 140.577 1264.16 160.937 1249.9 168.737Z" fill="#050504"/>
<path d="M1220.74 217.657C1220.74 217.657 1229.38 236.872 1229.38 239.092C1229.38 241.313 1223.21 244 1223.21 244M1176 196.193C1181.8 189.481 1190.28 185.614 1198.17 186.873C1199.31 187.062 1200.43 187.354 1201.51 187.746M1225.26 189.996C1231.42 184.504 1239.31 182.402 1245.76 185.307C1246.71 185.732 1247.6 186.254 1248.43 186.863" stroke="#050504" stroke-width="3" stroke-linecap="round"/>
<path d="M1203.35 255.384C1206.37 262.265 1216.82 263.918 1221.58 263.138" stroke="#050504" stroke-width="3" stroke-miterlimit="10" stroke-linecap="round"/>
<path d="M1197.76 221.802C1200.91 221.802 1203.47 218.384 1203.47 214.168C1203.47 209.951 1200.91 206.534 1197.76 206.534C1194.6 206.534 1192.04 209.951 1192.04 214.168C1192.04 218.384 1194.6 221.802 1197.76 221.802Z" fill="black"/>
<path d="M1201.52 211.411C1199.99 205.74 1192.34 204.858 1186.81 209.577" stroke="#050504" stroke-width="3" stroke-linecap="round"/>
<path d="M1242.45 219.045C1245.61 219.045 1248.16 215.628 1248.16 211.411C1248.16 207.195 1245.61 203.777 1242.45 203.777C1239.3 203.777 1236.74 207.195 1236.74 211.411C1236.74 215.628 1239.3 219.045 1242.45 219.045Z" fill="black"/>
<path d="M1246.21 208.655C1244.68 202.984 1237.03 202.102 1231.5 206.821" stroke="#050504" stroke-width="3" stroke-linecap="round"/>
<path d="M220.5 23V109H129M1310 23V84L1362 125.5M865 23V109H750V66M831 23V84H786M951 23V154L881 263.5H750M558 23V109H640.5L673 66M594 23V66H640.5" stroke="#008080" stroke-width="4"/>
<path d="M908 23V156H755.5M755.5 213.5H877.5M922.5 441V276L994.5 156H1069.5M980 441V276L1035.5 184.5M165 441V305H281.5V364M202.5 441V335.5H251M421.5 441V305H877.5V335.5H465M465 364H877.5M281.5 23V69.5M281.5 112.5H522V69.5M317.5 69.5H465M380.5 46.5H522M522 423.5H877.5V394.5H465V441" stroke="#008080" stroke-width="4"/>
<path d="M1005 89.5H1098.5M97 25V109M45 25V400" stroke="#008080" stroke-width="4"/>
<path d="M86 443V306.5M127.5 443V306.5M256.5 421.5H362.5V335.5" stroke="#008080" stroke-width="4"/>
<path d="M755.5 156L646 269" stroke="#008080" stroke-width="4"/>
<path d="M639 204.5L710.5 139.5" stroke="#008080" stroke-width="4"/>
</g>
<defs>
<filter id="filter0_d_22_2" x="15" y="21" width="1408" height="428" filterUnits="userSpaceOnUse" color-interpolation-filters="sRGB">
<feFlood flood-opacity="0" result="BackgroundImageFix"/>
<feColorMatrix in="SourceAlpha" type="matrix" values="0 0 0 0 0 0 0 0 0 0 0 0 0 0 0 0 0 0 127 0" result="hardAlpha"/>
<feOffset dy="3"/>
<feGaussianBlur stdDeviation="2"/>
<feComposite in2="hardAlpha" operator="out"/>
<feColorMatrix type="matrix" values="0 0 0 0 0 0 0 0 0 0 0 0 0 0 0 0 0 0 0.25 0"/>
<feBlend mode="normal" in2="BackgroundImageFix" result="effect1_dropShadow_22_2"/>
<feBlend mode="normal" in="SourceGraphic" in2="effect1_dropShadow_22_2" result="shape"/>
</filter>
<clipPath id="clip0_22_2">
<rect width="1438" height="463" fill="white"/>
</clipPath>
</defs>
</svg>
