<svg width="1513" height="515" viewBox="0 0 1513 515" fill="none" xmlns="http://www.w3.org/2000/svg">
<g clip-path="url(#clip0_22_2)">
<g filter="url(#filter0_d_22_2)">
<rect x="101" y="58" width="1276" height="385" rx="15" fill="#085252"/>
</g>
<path d="M1301 167L1376 229.5M1301 229.5V317.5M1333 273V378.5M1333 416.5H1376M1010 88H1281M261.5 395V427H333.5V344.5H412.5V445M371 378.5V445M1085.5 238.5L1039 317.5V445" stroke="#008080" stroke-width="4"/>
<path d="M202.5 59V113H148.5" stroke="#008080" stroke-width="4"/>
<path d="M183.922 306.432C182.322 306.432 180.882 306.128 179.602 305.52C178.354 304.88 177.362 304.016 176.626 302.928C175.89 301.84 175.522 300.624 175.522 299.28C175.522 297.584 175.954 296.24 176.818 295.248C177.714 294.256 179.17 293.552 181.186 293.136C183.234 292.688 186.018 292.464 189.538 292.464H191.074V290.976C191.074 288.992 190.658 287.568 189.826 286.704C189.026 285.808 187.73 285.36 185.938 285.36C184.53 285.36 183.17 285.568 181.858 285.984C180.546 286.368 179.202 287.008 177.826 287.904L176.482 285.072C177.698 284.208 179.17 283.52 180.898 283.008C182.658 282.496 184.338 282.24 185.938 282.24C188.946 282.24 191.17 282.976 192.61 284.448C194.082 285.92 194.818 288.208 194.818 291.312V306H191.17V301.968C190.562 303.344 189.618 304.432 188.338 305.232C187.09 306.032 185.618 306.432 183.922 306.432ZM184.546 303.504C186.466 303.504 188.034 302.848 189.25 301.536C190.466 300.192 191.074 298.496 191.074 296.448V295.008H189.586C186.994 295.008 184.946 295.136 183.442 295.392C181.97 295.616 180.93 296.032 180.322 296.64C179.746 297.216 179.458 298.016 179.458 299.04C179.458 300.352 179.906 301.424 180.802 302.256C181.73 303.088 182.978 303.504 184.546 303.504ZM214.887 306V272.16H235.815V275.472H218.823V287.28H234.855V290.592H218.823V306H214.887ZM248.396 306.432C242.796 306.432 239.996 303.344 239.996 297.168V282.672H243.884V297.12C243.884 299.2 244.3 300.736 245.132 301.728C245.996 302.72 247.34 303.216 249.164 303.216C251.148 303.216 252.764 302.56 254.012 301.248C255.26 299.904 255.884 298.128 255.884 295.92V282.672H259.772V306H255.98V302.064C255.244 303.472 254.204 304.56 252.86 305.328C251.548 306.064 250.06 306.432 248.396 306.432ZM274.198 306.432C271.83 306.432 270.038 305.744 268.822 304.368C267.638 302.96 267.046 300.928 267.046 298.272V272.16H270.934V297.984C270.934 301.408 272.294 303.12 275.014 303.12C275.814 303.12 276.534 303.024 277.174 302.832L277.078 306.096C276.086 306.32 275.126 306.432 274.198 306.432ZM288.402 306.432C286.034 306.432 284.242 305.744 283.026 304.368C281.842 302.96 281.25 300.928 281.25 298.272V272.16H285.138V297.984C285.138 301.408 286.498 303.12 289.218 303.12C290.018 303.12 290.738 303.024 291.378 302.832L291.282 306.096C290.29 306.32 289.33 306.432 288.402 306.432ZM294.886 294.816V291.6H308.326V294.816H294.886ZM323.387 306.432C321.563 306.432 319.835 306.176 318.203 305.664C316.571 305.152 315.227 304.432 314.171 303.504L315.419 300.768C316.571 301.696 317.835 302.384 319.211 302.832C320.619 303.248 322.043 303.456 323.483 303.456C325.307 303.456 326.683 303.12 327.611 302.448C328.539 301.776 329.003 300.864 329.003 299.712C329.003 298.816 328.699 298.112 328.091 297.6C327.483 297.056 326.523 296.64 325.211 296.352L320.843 295.392C316.875 294.528 314.891 292.48 314.891 289.248C314.891 287.136 315.723 285.44 317.387 284.16C319.083 282.88 321.291 282.24 324.011 282.24C325.611 282.24 327.131 282.496 328.571 283.008C330.043 283.488 331.259 284.208 332.219 285.168L330.923 287.904C329.995 287.04 328.907 286.384 327.659 285.936C326.443 285.456 325.227 285.216 324.011 285.216C322.219 285.216 320.859 285.568 319.931 286.272C319.003 286.976 318.539 287.904 318.539 289.056C318.539 290.848 319.723 292 322.091 292.512L326.459 293.424C328.507 293.872 330.059 294.592 331.115 295.584C332.171 296.544 332.699 297.856 332.699 299.52C332.699 301.664 331.851 303.36 330.155 304.608C328.459 305.824 326.203 306.432 323.387 306.432ZM347.75 306.432C344.998 306.432 342.934 305.712 341.558 304.272C340.182 302.8 339.494 300.688 339.494 297.936V285.696H334.934V282.672H339.494V275.52H343.382V282.672H350.774V285.696H343.382V297.552C343.382 299.376 343.766 300.768 344.534 301.728C345.302 302.656 346.55 303.12 348.278 303.12C348.79 303.12 349.302 303.056 349.814 302.928C350.326 302.8 350.79 302.672 351.206 302.544L351.878 305.52C351.462 305.744 350.854 305.952 350.054 306.144C349.254 306.336 348.486 306.432 347.75 306.432ZM362.515 306.432C360.915 306.432 359.475 306.128 358.195 305.52C356.947 304.88 355.955 304.016 355.219 302.928C354.483 301.84 354.115 300.624 354.115 299.28C354.115 297.584 354.547 296.24 355.411 295.248C356.307 294.256 357.763 293.552 359.779 293.136C361.827 292.688 364.611 292.464 368.131 292.464H369.667V290.976C369.667 288.992 369.251 287.568 368.419 286.704C367.619 285.808 366.323 285.36 364.531 285.36C363.123 285.36 361.763 285.568 360.451 285.984C359.139 286.368 357.795 287.008 356.419 287.904L355.075 285.072C356.291 284.208 357.763 283.52 359.491 283.008C361.251 282.496 362.931 282.24 364.531 282.24C367.539 282.24 369.763 282.976 371.203 284.448C372.675 285.92 373.411 288.208 373.411 291.312V306H369.763V301.968C369.155 303.344 368.211 304.432 366.931 305.232C365.683 306.032 364.211 306.432 362.515 306.432ZM363.139 303.504C365.059 303.504 366.627 302.848 367.843 301.536C369.059 300.192 369.667 298.496 369.667 296.448V295.008H368.179C365.587 295.008 363.539 295.136 362.035 295.392C360.563 295.616 359.523 296.032 358.915 296.64C358.339 297.216 358.051 298.016 358.051 299.04C358.051 300.352 358.499 301.424 359.395 302.256C360.323 303.088 361.571 303.504 363.139 303.504ZM390.513 306.432C388.177 306.432 386.161 305.936 384.465 304.944C382.769 303.92 381.457 302.496 380.529 300.672C379.633 298.816 379.185 296.656 379.185 294.192C379.185 290.48 380.193 287.568 382.209 285.456C384.225 283.312 386.993 282.24 390.513 282.24C391.953 282.24 393.377 282.496 394.785 283.008C396.193 283.52 397.361 284.24 398.289 285.168L396.945 288C396.017 287.104 394.993 286.448 393.873 286.032C392.785 285.616 391.745 285.408 390.753 285.408C388.321 285.408 386.449 286.176 385.137 287.712C383.825 289.216 383.169 291.392 383.169 294.24C383.169 297.024 383.825 299.232 385.137 300.864C386.449 302.464 388.321 303.264 390.753 303.264C391.745 303.264 392.785 303.056 393.873 302.64C394.993 302.224 396.017 301.552 396.945 300.624L398.289 303.456C397.361 304.384 396.177 305.12 394.737 305.664C393.329 306.176 391.921 306.432 390.513 306.432ZM402.843 306V272.16H406.731V293.04H406.827L417.627 282.672H422.571L410.859 293.904L423.579 306H418.635L406.827 295.056H406.731V306H402.843ZM448.051 306.432C445.971 306.432 444.147 305.936 442.579 304.944C441.043 303.952 439.843 302.56 438.979 300.768C438.147 298.944 437.731 296.8 437.731 294.336C437.731 291.84 438.147 289.696 438.979 287.904C439.843 286.08 441.043 284.688 442.579 283.728C444.147 282.736 445.971 282.24 448.051 282.24C449.875 282.24 451.475 282.64 452.851 283.44C454.259 284.24 455.299 285.344 455.971 286.752V272.16H459.859V306H456.067V301.728C455.395 303.2 454.355 304.352 452.947 305.184C451.539 306.016 449.907 306.432 448.051 306.432ZM448.867 303.312C451.043 303.312 452.787 302.544 454.099 301.008C455.411 299.44 456.067 297.216 456.067 294.336C456.067 291.424 455.411 289.2 454.099 287.664C452.787 286.128 451.043 285.36 448.867 285.36C446.659 285.36 444.899 286.128 443.587 287.664C442.307 289.2 441.667 291.424 441.667 294.336C441.667 297.216 442.307 299.44 443.587 301.008C444.899 302.544 446.659 303.312 448.867 303.312ZM477.668 306.432C473.988 306.432 471.076 305.36 468.932 303.216C466.788 301.04 465.716 298.096 465.716 294.384C465.716 291.984 466.196 289.872 467.156 288.048C468.116 286.192 469.428 284.768 471.092 283.776C472.788 282.752 474.74 282.24 476.948 282.24C480.116 282.24 482.596 283.264 484.388 285.312C486.18 287.328 487.076 290.112 487.076 293.664V295.152H469.508C469.636 297.808 470.404 299.84 471.812 301.248C473.22 302.624 475.172 303.312 477.668 303.312C479.076 303.312 480.42 303.104 481.7 302.688C482.98 302.24 484.196 301.52 485.348 300.528L486.692 303.264C485.636 304.256 484.292 305.04 482.66 305.616C481.028 306.16 479.364 306.432 477.668 306.432ZM477.044 285.12C474.836 285.12 473.092 285.808 471.812 287.184C470.532 288.56 469.78 290.368 469.556 292.608H483.716C483.62 290.24 482.996 288.4 481.844 287.088C480.724 285.776 479.124 285.12 477.044 285.12ZM499.285 306L489.253 282.672H493.477L501.205 301.584L509.029 282.672H513.013L502.933 306H499.285ZM527.308 306.432C523.628 306.432 520.716 305.36 518.572 303.216C516.428 301.04 515.356 298.096 515.356 294.384C515.356 291.984 515.836 289.872 516.796 288.048C517.756 286.192 519.068 284.768 520.732 283.776C522.428 282.752 524.38 282.24 526.588 282.24C529.756 282.24 532.236 283.264 534.028 285.312C535.82 287.328 536.716 290.112 536.716 293.664V295.152H519.148C519.276 297.808 520.044 299.84 521.452 301.248C522.86 302.624 524.812 303.312 527.308 303.312C528.716 303.312 530.06 303.104 531.34 302.688C532.62 302.24 533.836 301.52 534.988 300.528L536.332 303.264C535.276 304.256 533.932 305.04 532.3 305.616C530.668 306.16 529.004 306.432 527.308 306.432ZM526.684 285.12C524.476 285.12 522.732 285.808 521.452 287.184C520.172 288.56 519.42 290.368 519.196 292.608H533.356C533.26 290.24 532.636 288.4 531.484 287.088C530.364 285.776 528.764 285.12 526.684 285.12ZM549.495 306.432C547.127 306.432 545.335 305.744 544.119 304.368C542.935 302.96 542.343 300.928 542.343 298.272V272.16H546.231V297.984C546.231 301.408 547.591 303.12 550.311 303.12C551.111 303.12 551.831 303.024 552.471 302.832L552.375 306.096C551.383 306.32 550.423 306.432 549.495 306.432ZM566.008 306.432C563.736 306.432 561.768 305.936 560.104 304.944C558.44 303.952 557.144 302.56 556.216 300.768C555.32 298.944 554.872 296.8 554.872 294.336C554.872 291.872 555.32 289.744 556.216 287.952C557.144 286.128 558.44 284.72 560.104 283.728C561.768 282.736 563.736 282.24 566.008 282.24C568.248 282.24 570.2 282.736 571.864 283.728C573.56 284.72 574.856 286.128 575.752 287.952C576.68 289.744 577.144 291.872 577.144 294.336C577.144 296.8 576.68 298.944 575.752 300.768C574.856 302.56 573.56 303.952 571.864 304.944C570.2 305.936 568.248 306.432 566.008 306.432ZM566.008 303.312C568.184 303.312 569.928 302.544 571.24 301.008C572.552 299.44 573.208 297.216 573.208 294.336C573.208 291.424 572.552 289.2 571.24 287.664C569.928 286.128 568.184 285.36 566.008 285.36C563.8 285.36 562.04 286.128 560.728 287.664C559.448 289.2 558.808 291.424 558.808 294.336C558.808 297.216 559.448 299.44 560.728 301.008C562.04 302.544 563.8 303.312 566.008 303.312ZM582.984 314.64V282.672H586.776V286.848C587.48 285.408 588.52 284.288 589.896 283.488C591.304 282.656 592.936 282.24 594.792 282.24C596.872 282.24 598.68 282.736 600.216 283.728C601.784 284.688 602.984 286.08 603.816 287.904C604.68 289.696 605.112 291.84 605.112 294.336C605.112 296.8 604.68 298.944 603.816 300.768C602.984 302.56 601.784 303.952 600.216 304.944C598.68 305.936 596.872 306.432 594.792 306.432C593 306.432 591.4 306.032 589.992 305.232C588.584 304.432 587.544 303.328 586.872 301.92V314.64H582.984ZM593.976 303.312C596.152 303.312 597.896 302.544 599.208 301.008C600.52 299.44 601.176 297.216 601.176 294.336C601.176 291.424 600.52 289.2 599.208 287.664C597.896 286.128 596.152 285.36 593.976 285.36C591.8 285.36 590.056 286.128 588.744 287.664C587.432 289.2 586.776 291.424 586.776 294.336C586.776 297.216 587.432 299.44 588.744 301.008C590.056 302.544 591.8 303.312 593.976 303.312ZM621.48 306.432C617.8 306.432 614.888 305.36 612.744 303.216C610.6 301.04 609.528 298.096 609.528 294.384C609.528 291.984 610.008 289.872 610.968 288.048C611.928 286.192 613.24 284.768 614.904 283.776C616.6 282.752 618.552 282.24 620.76 282.24C623.928 282.24 626.408 283.264 628.2 285.312C629.992 287.328 630.888 290.112 630.888 293.664V295.152H613.32C613.448 297.808 614.216 299.84 615.624 301.248C617.032 302.624 618.984 303.312 621.48 303.312C622.888 303.312 624.232 303.104 625.512 302.688C626.792 302.24 628.008 301.52 629.16 300.528L630.504 303.264C629.448 304.256 628.104 305.04 626.472 305.616C624.84 306.16 623.176 306.432 621.48 306.432ZM620.856 285.12C618.648 285.12 616.904 285.808 615.624 287.184C614.344 288.56 613.592 290.368 613.368 292.608H627.528C627.432 290.24 626.808 288.4 625.656 287.088C624.536 285.776 622.936 285.12 620.856 285.12ZM636.515 306V282.672H640.307V286.848C641.555 284.032 644.115 282.48 647.987 282.192L649.379 282.048L649.667 285.408L647.219 285.696C645.011 285.888 643.331 286.592 642.179 287.808C641.027 288.992 640.451 290.624 640.451 292.704V306H636.515Z" fill="white"/>
<path d="M183.312 182.625H191.406V204.969H201V182.625H209.094V236H201V211.344H191.406V236H183.312V182.625ZM228.188 236.469C226.333 236.469 224.688 236.125 223.25 235.438C221.833 234.75 220.635 233.677 219.656 232.219C218.677 230.76 217.938 228.896 217.438 226.625C216.938 224.333 216.688 221.583 216.688 218.375V210.25C216.688 207.521 216.885 205.188 217.281 203.25C217.698 201.292 218.229 199.656 218.875 198.344C219.542 197.01 220.302 195.958 221.156 195.188C222.031 194.417 222.927 193.833 223.844 193.438C224.76 193.021 225.667 192.76 226.562 192.656C227.479 192.531 228.323 192.469 229.094 192.469C230.51 192.469 231.875 192.688 233.188 193.125C234.5 193.542 235.656 194.271 236.656 195.312C237.656 196.333 238.448 197.708 239.031 199.438C239.635 201.167 239.938 203.323 239.938 205.906C239.938 206.781 239.906 207.667 239.844 208.562C239.802 209.458 239.74 210.344 239.656 211.219C239.573 212.073 239.458 212.906 239.312 213.719C239.188 214.531 239.052 215.281 238.906 215.969H224.625V220.344C224.625 222.219 224.698 223.802 224.844 225.094C224.99 226.365 225.229 227.396 225.562 228.188C225.917 228.958 226.385 229.521 226.969 229.875C227.573 230.208 228.323 230.375 229.219 230.375C229.698 230.375 230.167 230.281 230.625 230.094C231.083 229.885 231.479 229.552 231.812 229.094C232.167 228.635 232.448 228.031 232.656 227.281C232.865 226.51 232.969 225.562 232.969 224.438V223.094H239.562V224.75C239.562 228.833 238.583 231.812 236.625 233.688C234.688 235.542 231.875 236.469 228.188 236.469ZM232.562 210.656C232.583 210.427 232.604 210.125 232.625 209.75C232.646 209.354 232.656 208.948 232.656 208.531C232.677 208.115 232.688 207.708 232.688 207.312C232.688 206.896 232.688 206.542 232.688 206.25C232.688 203.417 232.354 201.375 231.688 200.125C231.021 198.875 230.031 198.25 228.719 198.25C228.031 198.25 227.427 198.417 226.906 198.75C226.385 199.062 225.958 199.604 225.625 200.375C225.292 201.125 225.042 202.125 224.875 203.375C224.708 204.625 224.625 206.177 224.625 208.031V210.656H232.562ZM245 244.281C246.188 244.448 247.281 244.406 248.281 244.156C249.281 243.927 250.135 243.479 250.844 242.812C251.573 242.146 252.146 241.26 252.562 240.156C253 239.073 253.25 237.771 253.312 236.25L243.125 192.969H251.156L255.688 216.781L257 225H257.25L258.156 216.781L261.812 192.969H269.594L260.531 237.594C260.135 239.656 259.625 241.458 259 243C258.396 244.542 257.635 245.823 256.719 246.844C255.823 247.865 254.75 248.625 253.5 249.125C252.25 249.646 250.792 249.906 249.125 249.906C247.771 249.906 246.385 249.646 244.969 249.125L245 244.281ZM277.125 179.344H285.656L284.688 218.656H278.219L277.125 179.344ZM276.594 230.469C276.594 228.281 277.031 226.719 277.906 225.781C278.781 224.823 279.969 224.344 281.469 224.344C283.031 224.344 284.24 224.844 285.094 225.844C285.948 226.844 286.375 228.385 286.375 230.469C286.375 232.365 285.938 233.833 285.062 234.875C284.208 235.917 283 236.438 281.438 236.438C279.958 236.438 278.781 235.938 277.906 234.938C277.031 233.917 276.594 232.427 276.594 230.469ZM310.438 182.625H318.531V236H310.438V182.625ZM346.812 236.469C345.479 236.469 344.292 236.208 343.25 235.688C342.229 235.146 341.365 234.417 340.656 233.5C339.948 232.583 339.406 231.5 339.031 230.25C338.677 228.979 338.5 227.604 338.5 226.125C338.5 224.354 338.719 222.781 339.156 221.406C339.594 220.031 340.229 218.792 341.062 217.688C341.917 216.583 342.969 215.583 344.219 214.688C345.469 213.771 346.917 212.906 348.562 212.094C349.354 211.698 350.24 211.302 351.219 210.906C352.219 210.49 353.104 210.135 353.875 209.844V204.156C353.875 203.323 353.844 202.552 353.781 201.844C353.719 201.115 353.562 200.49 353.312 199.969C353.083 199.427 352.729 199.01 352.25 198.719C351.771 198.406 351.115 198.25 350.281 198.25C349.719 198.25 349.167 198.354 348.625 198.562C348.104 198.771 347.635 199.125 347.219 199.625C346.823 200.125 346.5 200.792 346.25 201.625C346.021 202.458 345.906 203.49 345.906 204.719V206.594H339.875C339.688 205.781 339.542 205.042 339.438 204.375C339.354 203.688 339.312 203.01 339.312 202.344C339.312 200.74 339.583 199.323 340.125 198.094C340.688 196.865 341.458 195.833 342.438 195C343.438 194.167 344.625 193.542 346 193.125C347.375 192.688 348.885 192.469 350.531 192.469C352.677 192.469 354.458 192.708 355.875 193.188C357.292 193.646 358.417 194.344 359.25 195.281C360.104 196.219 360.698 197.396 361.031 198.812C361.385 200.229 361.562 201.885 361.562 203.781V236H355.688L355.125 232.312C354.271 233.542 353.125 234.542 351.688 235.312C350.271 236.083 348.646 236.469 346.812 236.469ZM350.312 230.375C350.979 230.375 351.625 230.208 352.25 229.875C352.896 229.521 353.438 229.094 353.875 228.594V215.125C353.458 215.292 352.99 215.49 352.469 215.719C351.948 215.948 351.385 216.25 350.781 216.625C350.219 216.979 349.667 217.406 349.125 217.906C348.583 218.406 348.094 219 347.656 219.688C347.24 220.375 346.896 221.156 346.625 222.031C346.375 222.885 346.25 223.844 346.25 224.906C346.25 226.552 346.573 227.875 347.219 228.875C347.865 229.875 348.896 230.375 350.312 230.375ZM369.75 192.969H375.875L376.562 197.562V197.594C377.188 196.615 377.854 195.802 378.562 195.156C379.271 194.49 380 193.958 380.75 193.562C381.521 193.167 382.302 192.885 383.094 192.719C383.906 192.552 384.708 192.469 385.5 192.469C387.188 192.469 388.615 192.875 389.781 193.688C390.948 194.5 391.833 195.719 392.438 197.344C393.062 196.406 393.719 195.625 394.406 195C395.115 194.375 395.844 193.875 396.594 193.5C397.344 193.125 398.104 192.865 398.875 192.719C399.646 192.552 400.427 192.469 401.219 192.469C403.719 192.469 405.646 193.354 407 195.125C408.375 196.875 409.062 199.51 409.062 203.031V236H401.156V203.312C401.156 202.375 401.083 201.583 400.938 200.938C400.792 200.292 400.573 199.771 400.281 199.375C399.99 198.979 399.615 198.698 399.156 198.531C398.698 198.344 398.146 198.25 397.5 198.25C396.771 198.25 396.042 198.521 395.312 199.062C394.583 199.583 393.917 200.312 393.312 201.25C393.333 201.438 393.344 201.625 393.344 201.812C393.344 202 393.344 202.188 393.344 202.375V236H385.438V203.312C385.438 202.375 385.365 201.583 385.219 200.938C385.073 200.292 384.854 199.771 384.562 199.375C384.271 198.979 383.896 198.698 383.438 198.531C382.979 198.344 382.427 198.25 381.781 198.25C381.073 198.25 380.354 198.51 379.625 199.031C378.896 199.552 378.24 200.271 377.656 201.188V236H369.75V192.969ZM437.312 182.625H446.625L456.5 236H448.312L446.844 226.438H437.094L435.688 236H427.469L437.312 182.625ZM445.906 220.344L442.156 193.75H441.812L438.031 220.344H445.906ZM461.188 192.969H467.281L468 197.562V197.594C468.625 196.615 469.292 195.802 470 195.156C470.729 194.49 471.479 193.958 472.25 193.562C473.021 193.167 473.802 192.885 474.594 192.719C475.406 192.552 476.208 192.469 477 192.469C479.521 192.469 481.458 193.354 482.812 195.125C484.188 196.875 484.875 199.51 484.875 203.031V236H476.969V203.312C476.969 201.417 476.677 200.104 476.094 199.375C475.51 198.625 474.656 198.25 473.531 198.25C472.74 198.25 471.948 198.51 471.156 199.031C470.385 199.552 469.698 200.271 469.094 201.188V236H461.188V192.969ZM497.281 186.812C495.823 186.812 494.667 186.375 493.812 185.5C492.979 184.625 492.562 183.344 492.562 181.656C492.562 180.719 492.667 179.938 492.875 179.312C493.104 178.667 493.417 178.156 493.812 177.781C494.229 177.385 494.729 177.104 495.312 176.938C495.896 176.75 496.562 176.656 497.312 176.656C498.875 176.656 500.062 177.052 500.875 177.844C501.688 178.635 502.094 179.906 502.094 181.656C502.094 183.281 501.677 184.552 500.844 185.469C500.031 186.365 498.844 186.812 497.281 186.812ZM493.188 192.969H501.094V236H493.188V192.969ZM509.375 192.969H515.156L515.844 197.344C516.719 195.719 517.719 194.5 518.844 193.688C519.99 192.875 521.156 192.469 522.344 192.469C524.615 192.469 526.292 193.167 527.375 194.562C528.458 195.958 529 198.052 529 200.844C529 201.198 528.969 201.625 528.906 202.125C528.865 202.604 528.792 203.115 528.688 203.656C528.604 204.177 528.49 204.708 528.344 205.25C528.219 205.771 528.083 206.25 527.938 206.688H522.438V202.688C522.438 201.812 522.375 201.094 522.25 200.531C522.146 199.969 522 199.521 521.812 199.188C521.625 198.833 521.406 198.594 521.156 198.469C520.906 198.323 520.635 198.25 520.344 198.25C519.719 198.25 519.135 198.458 518.594 198.875C518.073 199.271 517.635 199.833 517.281 200.562V236H509.375V192.969ZM534 179.156H541.906V190.625L541.656 196.312L541.688 196.344C542.042 195.844 542.448 195.365 542.906 194.906C543.385 194.448 543.917 194.042 544.5 193.688C545.104 193.312 545.76 193.021 546.469 192.812C547.198 192.604 547.99 192.5 548.844 192.5C549.281 192.5 549.802 192.542 550.406 192.625C551.031 192.708 551.667 192.917 552.312 193.25C552.979 193.583 553.635 194.083 554.281 194.75C554.948 195.396 555.531 196.292 556.031 197.438C556.552 198.583 556.969 200.01 557.281 201.719C557.615 203.427 557.781 205.5 557.781 207.938V220.969C557.781 223.406 557.615 225.479 557.281 227.188C556.969 228.896 556.552 230.333 556.031 231.5C555.51 232.646 554.917 233.552 554.25 234.219C553.583 234.885 552.906 235.385 552.219 235.719C551.531 236.052 550.865 236.26 550.219 236.344C549.573 236.448 549.01 236.5 548.531 236.5C547.531 236.5 546.625 236.375 545.812 236.125C545.021 235.875 544.312 235.542 543.688 235.125C543.083 234.688 542.542 234.198 542.062 233.656C541.604 233.115 541.198 232.562 540.844 232L540.188 236H534V179.156ZM541.906 227.281C542.073 227.677 542.271 228.062 542.5 228.438C542.75 228.812 543.031 229.146 543.344 229.438C543.656 229.708 544.021 229.938 544.438 230.125C544.854 230.292 545.323 230.375 545.844 230.375C546.427 230.375 546.958 230.271 547.438 230.062C547.917 229.833 548.333 229.438 548.688 228.875C549.042 228.292 549.312 227.49 549.5 226.469C549.708 225.448 549.812 224.135 549.812 222.531V206.062C549.812 204.458 549.708 203.156 549.5 202.156C549.312 201.135 549.042 200.333 548.688 199.75C548.354 199.167 547.948 198.771 547.469 198.562C546.99 198.354 546.458 198.25 545.875 198.25C544.896 198.25 544.083 198.542 543.438 199.125C542.812 199.688 542.302 200.365 541.906 201.156V227.281ZM570.875 236.469C569.542 236.469 568.354 236.208 567.312 235.688C566.292 235.146 565.427 234.417 564.719 233.5C564.01 232.583 563.469 231.5 563.094 230.25C562.74 228.979 562.562 227.604 562.562 226.125C562.562 224.354 562.781 222.781 563.219 221.406C563.656 220.031 564.292 218.792 565.125 217.688C565.979 216.583 567.031 215.583 568.281 214.688C569.531 213.771 570.979 212.906 572.625 212.094C573.417 211.698 574.302 211.302 575.281 210.906C576.281 210.49 577.167 210.135 577.938 209.844V204.156C577.938 203.323 577.906 202.552 577.844 201.844C577.781 201.115 577.625 200.49 577.375 199.969C577.146 199.427 576.792 199.01 576.312 198.719C575.833 198.406 575.177 198.25 574.344 198.25C573.781 198.25 573.229 198.354 572.688 198.562C572.167 198.771 571.698 199.125 571.281 199.625C570.885 200.125 570.562 200.792 570.312 201.625C570.083 202.458 569.969 203.49 569.969 204.719V206.594H563.938C563.75 205.781 563.604 205.042 563.5 204.375C563.417 203.688 563.375 203.01 563.375 202.344C563.375 200.74 563.646 199.323 564.188 198.094C564.75 196.865 565.521 195.833 566.5 195C567.5 194.167 568.688 193.542 570.062 193.125C571.438 192.688 572.948 192.469 574.594 192.469C576.74 192.469 578.521 192.708 579.938 193.188C581.354 193.646 582.479 194.344 583.312 195.281C584.167 196.219 584.76 197.396 585.094 198.812C585.448 200.229 585.625 201.885 585.625 203.781V236H579.75L579.188 232.312C578.333 233.542 577.188 234.542 575.75 235.312C574.333 236.083 572.708 236.469 570.875 236.469ZM574.375 230.375C575.042 230.375 575.688 230.208 576.312 229.875C576.958 229.521 577.5 229.094 577.938 228.594V215.125C577.521 215.292 577.052 215.49 576.531 215.719C576.01 215.948 575.448 216.25 574.844 216.625C574.281 216.979 573.729 217.406 573.188 217.906C572.646 218.406 572.156 219 571.719 219.688C571.302 220.375 570.958 221.156 570.688 222.031C570.438 222.885 570.312 223.844 570.312 224.906C570.312 226.552 570.635 227.875 571.281 228.875C571.927 229.875 572.958 230.375 574.375 230.375ZM593.812 192.969H599.906L600.625 197.562V197.594C601.25 196.615 601.917 195.802 602.625 195.156C603.354 194.49 604.104 193.958 604.875 193.562C605.646 193.167 606.427 192.885 607.219 192.719C608.031 192.552 608.833 192.469 609.625 192.469C612.146 192.469 614.083 193.354 615.438 195.125C616.812 196.875 617.5 199.51 617.5 203.031V236H609.594V203.312C609.594 201.417 609.302 200.104 608.719 199.375C608.135 198.625 607.281 198.25 606.156 198.25C605.365 198.25 604.573 198.51 603.781 199.031C603.01 199.552 602.323 200.271 601.719 201.188V236H593.812V192.969ZM639.875 182.625H647.969V205.938H648.219L657.469 182.625H665.531L655.219 207.656L666.688 236H658.031L648.219 210.594H647.969V236H639.875V182.625ZM676.75 236.469C675.417 236.469 674.229 236.208 673.188 235.688C672.167 235.146 671.302 234.417 670.594 233.5C669.885 232.583 669.344 231.5 668.969 230.25C668.615 228.979 668.438 227.604 668.438 226.125C668.438 224.354 668.656 222.781 669.094 221.406C669.531 220.031 670.167 218.792 671 217.688C671.854 216.583 672.906 215.583 674.156 214.688C675.406 213.771 676.854 212.906 678.5 212.094C679.292 211.698 680.177 211.302 681.156 210.906C682.156 210.49 683.042 210.135 683.812 209.844V204.156C683.812 203.323 683.781 202.552 683.719 201.844C683.656 201.115 683.5 200.49 683.25 199.969C683.021 199.427 682.667 199.01 682.188 198.719C681.708 198.406 681.052 198.25 680.219 198.25C679.656 198.25 679.104 198.354 678.562 198.562C678.042 198.771 677.573 199.125 677.156 199.625C676.76 200.125 676.438 200.792 676.188 201.625C675.958 202.458 675.844 203.49 675.844 204.719V206.594H669.812C669.625 205.781 669.479 205.042 669.375 204.375C669.292 203.688 669.25 203.01 669.25 202.344C669.25 200.74 669.521 199.323 670.062 198.094C670.625 196.865 671.396 195.833 672.375 195C673.375 194.167 674.562 193.542 675.938 193.125C677.312 192.688 678.823 192.469 680.469 192.469C682.615 192.469 684.396 192.708 685.812 193.188C687.229 193.646 688.354 194.344 689.188 195.281C690.042 196.219 690.635 197.396 690.969 198.812C691.323 200.229 691.5 201.885 691.5 203.781V236H685.625L685.062 232.312C684.208 233.542 683.062 234.542 681.625 235.312C680.208 236.083 678.583 236.469 676.75 236.469ZM680.25 230.375C680.917 230.375 681.562 230.208 682.188 229.875C682.833 229.521 683.375 229.094 683.812 228.594V215.125C683.396 215.292 682.927 215.49 682.406 215.719C681.885 215.948 681.323 216.25 680.719 216.625C680.156 216.979 679.604 217.406 679.062 217.906C678.521 218.406 678.031 219 677.594 219.688C677.177 220.375 676.833 221.156 676.562 222.031C676.312 222.885 676.188 223.844 676.188 224.906C676.188 226.552 676.51 227.875 677.156 228.875C677.802 229.875 678.833 230.375 680.25 230.375ZM699.688 192.969H705.469L706.156 197.344C707.031 195.719 708.031 194.5 709.156 193.688C710.302 192.875 711.469 192.469 712.656 192.469C714.927 192.469 716.604 193.167 717.688 194.562C718.771 195.958 719.312 198.052 719.312 200.844C719.312 201.198 719.281 201.625 719.219 202.125C719.177 202.604 719.104 203.115 719 203.656C718.917 204.177 718.802 204.708 718.656 205.25C718.531 205.771 718.396 206.25 718.25 206.688H712.75V202.688C712.75 201.812 712.688 201.094 712.562 200.531C712.458 199.969 712.312 199.521 712.125 199.188C711.938 198.833 711.719 198.594 711.469 198.469C711.219 198.323 710.948 198.25 710.656 198.25C710.031 198.25 709.448 198.458 708.906 198.875C708.385 199.271 707.948 199.833 707.594 200.562V236H699.688V192.969Z" fill="white"/>
<path d="M1215.7 287.464C1208.41 287.244 1186.78 280.374 1182.48 277.204Z" fill="#E8BEAC"/>
<path d="M1218.7 321.324C1232.15 340.074 1275.64 345.64 1283.06 348.32C1295.23 352.91 1297.3 365.32 1297.48 372.08C1298 391.34 1300.27 424.38 1293.48 441.84" fill="#E8BEAC"/>
<path d="M1218.7 321.324C1210.54 306.684 1215.7 287.464 1215.7 287.464C1215.7 287.464 1231.51 288.214 1237.85 284.984C1250.04 279.754 1264.52 260.624 1264.37 233.234C1264.02 208.568 1258.81 184.213 1249.04 161.564C1240.22 138.754 1185.49 117.434 1144.26 157.274C1144.26 157.274 1122.03 177.594 1134.94 211.364" fill="#E8BEAC"/>
<path d="M1070.88 441.84C1065.01 423.03 1067.32 373.57 1068.17 366.59C1069.02 359.61 1072.3 345.45 1089.67 341.14C1097.35 339.21 1145.44 331.434 1155.2 317.944" fill="#E8BEAC"/>
<path d="M1157.56 266.944C1157.56 266.944 1141.41 257.774 1134.97 238.654C1128.53 219.534 1134.94 211.364 1134.94 211.364C1140.11 203.654 1160.68 201.764 1160.68 225.024" fill="#E8BEAC"/>
<path d="M1157.56 266.944C1158.79 291.244 1159.1 302.394 1155.2 317.944Z" fill="#E8BEAC"/>
<path d="M1218.7 321.324C1232.15 340.074 1275.64 345.64 1283.06 348.32C1295.23 352.91 1297.3 365.32 1297.48 372.08C1298 391.34 1300.27 424.38 1293.48 441.84H1070.88C1065.01 423.03 1067.32 373.57 1068.17 366.59C1069.02 359.61 1072.3 345.45 1089.67 341.14C1097.35 339.21 1145.44 331.434 1155.2 317.944C1159.1 302.394 1158.79 291.244 1157.56 266.944C1157.56 266.944 1141.41 257.774 1134.97 238.654C1128.53 219.534 1134.94 211.364 1134.94 211.364C1122.03 177.594 1144.26 157.274 1144.26 157.274C1185.49 117.434 1240.22 138.754 1249.04 161.564C1258.81 184.213 1264.02 208.568 1264.37 233.234C1264.52 260.624 1250.04 279.754 1237.85 284.984C1231.51 288.214 1215.7 287.464 1215.7 287.464C1215.7 287.464 1210.54 306.684 1218.7 321.324Z" fill="#E8BEAC"/>
<path d="M1215.7 287.464C1208.41 287.244 1186.78 280.374 1182.48 277.204M1215.7 287.464C1215.7 287.464 1210.54 306.684 1218.7 321.324C1232.15 340.074 1275.64 345.64 1283.06 348.32C1295.23 352.91 1297.3 365.32 1297.48 372.08C1298 391.34 1300.27 424.38 1293.48 441.84H1070.88C1065.01 423.03 1067.32 373.57 1068.17 366.59C1069.02 359.61 1072.3 345.45 1089.67 341.14C1097.35 339.21 1145.44 331.434 1155.2 317.944C1159.1 302.394 1158.79 291.244 1157.56 266.944C1157.56 266.944 1141.41 257.774 1134.97 238.654C1128.53 219.534 1134.94 211.364 1134.94 211.364M1215.7 287.464C1215.7 287.464 1231.51 288.214 1237.85 284.984C1250.04 279.754 1264.52 260.624 1264.37 233.234C1264.02 208.568 1258.81 184.213 1249.04 161.564C1240.22 138.754 1185.49 117.434 1144.26 157.274C1144.26 157.274 1122.03 177.594 1134.94 211.364M1134.94 211.364C1140.11 203.654 1160.68 201.764 1160.68 225.024" stroke="#050504" stroke-width="3" stroke-linecap="round" stroke-linejoin="round"/>
<path opacity="0.4" d="M1215.47 286.694C1214.5 293.5 1213 303.5 1215.47 311.5C1206.32 309.33 1180.49 291.474 1180.49 276.974C1191.79 281.388 1203.51 284.645 1215.47 286.694Z" fill="black"/>
<path d="M1146.72 217C1142.82 218.06 1140.16 223.95 1143.26 230.3" stroke="black" stroke-width="4" stroke-miterlimit="10" stroke-linecap="round"/>
<path d="M1065.17 366.59C1064.32 373.57 1062.01 423.03 1067.88 441.84H1290.48C1297.27 424.38 1295 391.34 1294.48 372.08C1294.3 365.32 1292.23 352.91 1280.06 348.32C1273.26 345.866 1238.5 341.5 1220.5 327L1184 330L1147.5 323C1131.32 333.054 1093.29 339.476 1086.67 341.14C1069.3 345.45 1066.02 359.61 1065.17 366.59Z" fill="#050504" stroke="#050504" stroke-width="3" stroke-linecap="round" stroke-linejoin="round"/>
<path d="M1174.89 350.23L1147 332.64C1150.16 326.118 1152.32 319.161 1153.43 312L1186.94 331.13L1214.02 314.93C1215.53 322.61 1217.8 329.07 1220.95 334.12L1197.75 347.74L1186.94 331.13L1174.89 350.23Z" fill="#9A36E8" stroke="#050504" stroke-width="3" stroke-linecap="round" stroke-linejoin="round"/>
<path d="M1185.05 331L1195.86 347.61C1203.08 377.34 1212.86 416.84 1214.95 450.61L1196.95 467.84L1179.79 453C1179.04 421.63 1179.07 381.85 1173 350.13L1185.05 331Z" fill="#9A36E8" stroke="#050504" stroke-width="3" stroke-linecap="round" stroke-linejoin="round"/>
<path opacity="0.2" d="M1184.05 331L1193.56 345.6L1173.52 354.65L1172 350.12L1184.05 331Z" fill="#050504"/>
<path d="M1255.76 174.773C1245.49 180.593 1206.14 184.523 1194.26 183.183C1188.7 182.553 1177.95 181.523 1171.45 180.803C1171.25 180.811 1171.06 180.878 1170.9 180.997C1170.74 181.116 1170.62 181.28 1170.55 181.468C1170.48 181.656 1170.47 181.86 1170.52 182.053C1170.57 182.247 1170.68 182.421 1170.83 182.553C1198.6 200.883 1162.89 243.233 1161.03 219.743C1157.41 200.423 1140.52 207.423 1138.52 208.633C1136.11 210.14 1134.09 212.196 1132.63 214.633C1130.82 217.523 1129.87 232.973 1139.15 248.793C1139.26 248.993 1139.29 249.224 1139.25 249.448C1139.21 249.672 1139.09 249.874 1138.92 250.023L1135.58 252.643C1135.47 252.72 1135.35 252.775 1135.22 252.805C1135.1 252.836 1134.96 252.84 1134.83 252.819C1134.7 252.798 1134.58 252.751 1134.47 252.681C1134.35 252.611 1134.26 252.52 1134.18 252.413C1089.45 184.163 1121.56 170.283 1126.36 168.663C1126.53 168.597 1126.68 168.487 1126.79 168.345C1126.9 168.202 1126.97 168.032 1126.99 167.853C1128.88 148.743 1140.85 126.713 1167.81 122.503C1182.29 120.093 1196.87 122.673 1205.56 126.103H1205.63C1216.22 129.523 1224.28 123.493 1233.74 114.403C1233.87 114.278 1234.03 114.181 1234.19 114.119C1234.36 114.056 1234.54 114.028 1234.72 114.038C1234.9 114.047 1235.08 114.093 1235.24 114.173C1235.4 114.253 1235.54 114.365 1235.66 114.503C1239.75 119.373 1239.54 122.833 1238.11 125.823C1238.05 125.993 1238.04 126.177 1238.07 126.354C1238.11 126.532 1238.19 126.696 1238.31 126.831C1238.43 126.965 1238.59 127.064 1238.76 127.118C1238.93 127.171 1239.12 127.176 1239.29 127.133C1247.88 123.993 1266.7 127.723 1273.88 122.673C1274.02 122.589 1274.17 122.54 1274.33 122.529C1274.49 122.518 1274.65 122.545 1274.8 122.609C1274.95 122.672 1275.08 122.771 1275.18 122.895C1275.28 123.019 1275.35 123.166 1275.38 123.323C1278.39 146.613 1269.93 166.973 1255.76 174.773Z" fill="#050504"/>
<path d="M1227.48 224.657C1227.48 224.657 1236.07 243.872 1236.07 246.092C1236.07 248.313 1229.94 251 1229.94 251M1183 203.193C1188.77 196.481 1197.2 192.614 1205.04 193.873C1206.17 194.062 1207.28 194.354 1208.36 194.746M1231.97 196.996C1238.09 191.504 1245.94 189.402 1252.35 192.307C1253.29 192.732 1254.18 193.254 1255 193.863" stroke="#050504" stroke-width="3" stroke-linecap="round"/>
<path d="M1210.19 262.384C1213.19 269.265 1223.58 270.918 1228.31 270.138" stroke="#050504" stroke-width="3" stroke-miterlimit="10" stroke-linecap="round"/>
<path d="M1204.63 228.802C1207.77 228.802 1210.31 225.384 1210.31 221.168C1210.31 216.951 1207.77 213.534 1204.63 213.534C1201.49 213.534 1198.95 216.951 1198.95 221.168C1198.95 225.384 1201.49 228.802 1204.63 228.802Z" fill="black"/>
<path d="M1208.37 218.411C1206.84 212.74 1199.24 211.858 1193.74 216.577" stroke="#050504" stroke-width="3" stroke-linecap="round"/>
<path d="M1249.06 226.045C1252.19 226.045 1254.74 222.628 1254.74 218.411C1254.74 214.195 1252.19 210.777 1249.06 210.777C1245.92 210.777 1243.38 214.195 1243.38 218.411C1243.38 222.628 1245.92 226.045 1249.06 226.045Z" fill="black"/>
<path d="M1252.79 215.655C1251.27 209.984 1243.67 209.102 1238.17 213.821" stroke="#050504" stroke-width="3" stroke-linecap="round"/>
<path d="M1218.69 219.13C1218.69 219.958 1219.36 220.63 1220.19 220.63C1221.02 220.63 1221.69 219.958 1221.69 219.13H1218.69ZM1234.16 217.48C1234.16 218.308 1234.83 218.98 1235.66 218.98C1236.49 218.98 1237.16 218.308 1237.16 217.48H1234.16ZM1189.35 219.751C1190.14 219.999 1190.98 219.56 1191.23 218.769C1191.48 217.979 1191.04 217.137 1190.25 216.889L1189.35 219.751ZM1135.96 210.49L1136.6 211.846C1136.62 211.838 1136.63 211.83 1136.65 211.822L1135.96 210.49ZM1126.49 226.435C1126.64 227.25 1127.42 227.787 1128.24 227.634C1129.05 227.482 1129.59 226.699 1129.43 225.885L1126.49 226.435ZM1218.69 218.32C1218.69 227.357 1212.37 234.31 1205 234.31V237.31C1214.41 237.31 1221.69 228.602 1221.69 218.32H1218.69ZM1205 234.31C1197.63 234.31 1191.31 227.357 1191.31 218.32H1188.31C1188.31 228.602 1195.59 237.31 1205 237.31V234.31ZM1191.31 218.32C1191.31 209.283 1197.63 202.33 1205 202.33V199.33C1195.59 199.33 1188.31 208.038 1188.31 218.32H1191.31ZM1205 202.33C1212.37 202.33 1218.69 209.283 1218.69 218.32H1221.69C1221.69 208.038 1214.41 199.33 1205 199.33V202.33ZM1264.4 214.94C1264.4 223.977 1258.08 230.93 1250.71 230.93V233.93C1260.12 233.93 1267.4 225.222 1267.4 214.94H1264.4ZM1250.71 230.93C1243.34 230.93 1237.02 223.977 1237.02 214.94H1234.02C1234.02 225.222 1241.3 233.93 1250.71 233.93V230.93ZM1237.02 214.94C1237.02 205.903 1243.34 198.95 1250.71 198.95V195.95C1241.3 195.95 1234.02 204.658 1234.02 214.94H1237.02ZM1250.71 198.95C1258.08 198.95 1264.4 205.903 1264.4 214.94H1267.4C1267.4 204.658 1260.12 195.95 1250.71 195.95V198.95ZM1221.69 219.13C1221.69 218.03 1222.26 217.128 1223.41 216.403C1224.59 215.658 1226.25 215.195 1228.02 215.088C1229.78 214.982 1231.45 215.243 1232.63 215.771C1233.81 216.305 1234.16 216.927 1234.16 217.48H1237.16C1237.16 215.248 1235.57 213.809 1233.86 213.036C1232.13 212.257 1229.94 211.967 1227.83 212.094C1225.73 212.221 1223.53 212.778 1221.8 213.868C1220.05 214.98 1218.69 216.73 1218.69 219.13H1221.69ZM1189.8 218.32C1190.25 216.889 1190.25 216.889 1190.25 216.889C1190.25 216.888 1190.25 216.888 1190.25 216.888C1190.25 216.888 1190.24 216.887 1190.24 216.886C1190.23 216.884 1190.23 216.882 1190.22 216.878C1190.19 216.872 1190.16 216.862 1190.12 216.849C1190.04 216.823 1189.92 216.785 1189.76 216.736C1189.43 216.638 1188.96 216.495 1188.36 216.315C1187.16 215.955 1185.43 215.448 1183.33 214.858C1179.11 213.677 1173.38 212.161 1167.29 210.821C1161.22 209.483 1154.76 208.312 1149.1 207.835C1146.27 207.596 1143.62 207.528 1141.29 207.709C1138.99 207.888 1136.89 208.318 1135.27 209.158L1136.65 211.822C1137.76 211.249 1139.39 210.865 1141.52 210.7C1143.63 210.536 1146.12 210.594 1148.85 210.824C1154.31 211.286 1160.63 212.425 1166.65 213.751C1172.66 215.075 1178.34 216.576 1182.52 217.746C1184.6 218.331 1186.32 218.833 1187.5 219.189C1188.1 219.367 1188.56 219.508 1188.87 219.604C1189.03 219.652 1189.15 219.689 1189.23 219.714C1189.27 219.726 1189.3 219.736 1189.32 219.742C1189.33 219.745 1189.34 219.747 1189.34 219.749C1189.35 219.75 1189.35 219.75 1189.35 219.751C1189.35 219.751 1189.35 219.751 1189.35 219.751C1189.35 219.751 1189.35 219.751 1189.8 218.32ZM1135.32 209.134C1132.14 210.638 1129.55 213.15 1127.95 216.28L1130.63 217.644C1131.92 215.105 1134.02 213.066 1136.6 211.846L1135.32 209.134ZM1127.95 216.28C1126.36 219.41 1125.84 222.981 1126.49 226.435L1129.43 225.885C1128.91 223.082 1129.33 220.184 1130.63 217.644L1127.95 216.28Z" fill="#050504"/>
<path d="M234.5 61V147H143M1324 61V122L1376 163.5M879 61V147H764V104M845 61V122H800M965 61V192L895 301.5H764M572 61V147H654.5L687 104M608 61V104H654.5" stroke="#008080" stroke-width="4"/>
<path d="M922 61V194H769.5M769.5 251.5H891.5M936.5 443.5V314L1008.5 194H1083.5M994 443.5V314L1049.5 222.5M179 443.5V343H295.5V402M216.5 443.5V373.5H265M435.5 443.5V343H891.5V373.5H479M536 402H859.5M295.5 61V107.5M295.5 150.5H536V107.5M331.5 107.5H479M394.5 84.5H536" stroke="#008080" stroke-width="4"/>
</g>
<defs>
<filter id="filter0_d_22_2" x="97" y="57" width="1284" height="393" filterUnits="userSpaceOnUse" color-interpolation-filters="sRGB">
<feFlood flood-opacity="0" result="BackgroundImageFix"/>
<feColorMatrix in="SourceAlpha" type="matrix" values="0 0 0 0 0 0 0 0 0 0 0 0 0 0 0 0 0 0 127 0" result="hardAlpha"/>
<feOffset dy="3"/>
<feGaussianBlur stdDeviation="2"/>
<feComposite in2="hardAlpha" operator="out"/>
<feColorMatrix type="matrix" values="0 0 0 0 0 0 0 0 0 0 0 0 0 0 0 0 0 0 0.25 0"/>
<feBlend mode="normal" in2="BackgroundImageFix" result="effect1_dropShadow_22_2"/>
<feBlend mode="normal" in="SourceGraphic" in2="effect1_dropShadow_22_2" result="shape"/>
</filter>
<clipPath id="clip0_22_2">
<rect width="1513" height="515" fill="white"/>
</clipPath>
</defs>
</svg>
